<svg id="Layer_1" data-name="Layer 1" xmlns="http://www.w3.org/2000/svg" viewBox="0 0 212 390"><defs><style>.cls-1,.cls-2{stroke:#000;stroke-miterlimit:10;}.cls-2{fill:#fff;}</style></defs><rect class="cls-1" x="9.5" y="20.5" width="195" height="369"/><path class="cls-2" d="M53.45,114.94h6.24c3.79,0,6.73,1,6.73,4.52A4.21,4.21,0,0,1,64,123.4v.11a4.17,4.17,0,0,1,3.3,4.3c0,3.71-3.14,5.37-7.11,5.37H53.45Zm6,7.3c2,0,2.89-.84,2.89-2.17s-.93-1.95-2.86-1.95h-2v4.12Zm.38,7.76c2.25,0,3.41-.8,3.41-2.46s-1.14-2.25-3.41-2.25H57.57V130Z"/><path class="cls-2" d="M73.78,114.94h4.94l5.73,18.24H80.09l-2.39-9.24c-.51-1.82-1-4-1.48-5.88H76.1c-.44,1.92-.92,4.06-1.43,5.88l-2.4,9.24H68.05Zm-2,10.69h8.78v3.21H71.83Z"/><path class="cls-2" d="M86.21,114.94h5.16c5.57,0,9.16,2.77,9.16,9s-3.59,9.2-8.93,9.2H86.21Zm4.91,14.92c3.09,0,5.18-1.51,5.18-5.88s-2.09-5.72-5.18-5.72h-.79v11.6Z"/><path class="cls-2" d="M109.59,114.94h4.12v14.78h7.21v3.46H109.59Z"/><path class="cls-2" d="M124.09,114.94h4.13v18.24h-4.13Z"/><path class="cls-2" d="M132.52,114.94H144v3.46h-7.39v4.23H143v3.46h-6.31v7.09h-4.13Z"/><path class="cls-2" d="M147.19,114.94h11.44v3.46h-7.31v3.66h6.22v3.46h-6.22v4.2h7.59v3.46H147.19Z"/><rect class="cls-1" x="0.5" y="0.5" width="211" height="27"/></svg>