<svg xmlns="http://www.w3.org/2000/svg" viewBox="0 0 212 390"><defs><style>.a,.b{stroke:#000;stroke-miterlimit:10;}.b{fill:#fff;}</style></defs><rect class="a" x="9.5" y="20.5" width="195" height="369"/><path class="b" d="M49.37,119.94h6.25c3.79,0,6.73,1,6.73,4.52a4.22,4.22,0,0,1-2.41,3.94v.11a4.17,4.17,0,0,1,3.31,4.3c0,3.71-3.14,5.37-7.11,5.37H49.37Zm6.06,7.3c2,0,2.89-.84,2.89-2.17s-.94-1.95-2.86-1.95h-2v4.12ZM55.8,135c2.25,0,3.41-.8,3.41-2.46s-1.14-2.25-3.41-2.25H53.5V135Z"/><path class="b" d="M66.31,119.94H77.75v3.46H70.44v3.66h6.22v3.46H70.44v4.2H78v3.46H66.31Z"/><path class="b" d="M80.48,135.88l2.37-2.83A7.25,7.25,0,0,0,87.33,135c1.72,0,2.56-.68,2.56-1.76s-1-1.52-2.63-2.18l-2.37-1a5.32,5.32,0,0,1-3.68-5c0-3,2.7-5.44,6.5-5.44A8.45,8.45,0,0,1,93.58,122l-2.08,2.6a6,6,0,0,0-3.79-1.43c-1.42,0-2.33.59-2.33,1.64s1.19,1.52,2.79,2.16l2.32.94c2.23.9,3.62,2.39,3.62,5,0,3-2.52,5.66-6.87,5.66A10,10,0,0,1,80.48,135.88Z"/><path class="b" d="M100.23,123.4h-5v-3.46h14.17v3.46h-5v14.78h-4.13Z"/><path class="b" d="M117.83,119.94H122v14.78h7.2v3.46H117.83Z"/><path class="b" d="M132.34,119.94h4.12v18.24h-4.12Z"/><path class="b" d="M140.76,119.94h11.52v3.46h-7.39v4.23h6.31v3.46h-6.31v7.09h-4.13Z"/><path class="b" d="M155.44,119.94h11.43v3.46h-7.31v3.66h6.22v3.46h-6.22v4.2h7.59v3.46H155.44Z"/><rect class="a" x="0.5" y="0.5" width="211" height="27"/></svg>