<svg id="Layer_1" data-name="Layer 1" xmlns="http://www.w3.org/2000/svg" viewBox="0 0 212 390"><defs><style>.cls-1,.cls-2{stroke:#000;stroke-miterlimit:10;}.cls-2{fill:#fff;}</style></defs><rect class="cls-1" x="9.5" y="20.5" width="195" height="369"/><path class="cls-2" d="M40.58,129.17c0-6.06,4-9.57,8.9-9.57A7.91,7.91,0,0,1,55.24,122l-2.18,2.64a4.73,4.73,0,0,0-3.44-1.45c-2.81,0-4.81,2.21-4.81,5.87S46.51,135,50,135a3.29,3.29,0,0,0,1.93-.54v-3.16h-3V127.9h6.68v8.41a8.78,8.78,0,0,1-6,2.21C44.5,138.52,40.58,135.31,40.58,129.17Z"/><path class="cls-2" d="M58.45,129c0-6,3.37-9.38,8.29-9.38S75,123,75,129s-3.37,9.54-8.29,9.54S58.45,134.94,58.45,129Zm12.35,0c0-3.66-1.57-5.82-4.06-5.82s-4.06,2.16-4.06,5.82,1.57,6,4.06,6S70.8,132.64,70.8,129Z"/><path class="cls-2" d="M77.6,129c0-6,3.37-9.38,8.29-9.38S94.18,123,94.18,129s-3.37,9.54-8.29,9.54S77.6,134.94,77.6,129ZM90,129c0-3.66-1.57-5.82-4.06-5.82s-4.06,2.16-4.06,5.82,1.57,6,4.06,6S90,132.64,90,129Z"/><path class="cls-2" d="M97.62,119.94h5.15c5.58,0,9.17,2.77,9.17,9s-3.59,9.2-8.93,9.2H97.62Zm4.9,14.92c3.1,0,5.19-1.51,5.19-5.88s-2.09-5.72-5.19-5.72h-.78v11.6Z"/><path class="cls-2" d="M121,119.94h4.12v14.78h7.2v3.46H121Z"/><path class="cls-2" d="M135.5,119.94h4.13v18.24H135.5Z"/><path class="cls-2" d="M143.93,119.94h11.51v3.46h-7.39v4.23h6.32v3.46h-6.32v7.09h-4.12Z"/><path class="cls-2" d="M158.6,119.94H170v3.46h-7.31v3.66H169v3.46h-6.23v4.2h7.59v3.46H158.6Z"/><rect class="cls-1" x="0.5" y="0.5" width="211" height="27"/></svg>