<svg xmlns="http://www.w3.org/2000/svg" viewBox="0 0 212 390"><defs><style>.a,.b{stroke:#000;stroke-miterlimit:10;}.b{fill:#fff;}</style></defs><rect class="a" x="9.5" y="20.5" width="195" height="369"/><path class="b" d="M48.87,119.94H53v7h6.3v-7h4.13v18.24H59.29v-7.61H53v7.61H48.87Z"/><path class="b" d="M71.14,119.94h4.93l5.73,18.24H77.44l-2.39-9.24c-.51-1.82-1-4-1.48-5.88h-.11c-.44,1.92-.93,4.06-1.44,5.88l-2.4,9.24H65.4Zm-2,10.69H78v3.21H69.18Z"/><path class="b" d="M83.56,119.94h4.13v14.78h7.2v3.46H83.56Z"/><path class="b" d="M98.06,119.94h11.52v3.46h-7.39v4.23h6.31v3.46h-6.31v7.09H98.06Z"/><path class="b" d="M118.34,119.94h4.12v14.78h7.21v3.46H118.34Z"/><path class="b" d="M132.84,119.94H137v18.24h-4.13Z"/><path class="b" d="M141.27,119.94h11.51v3.46h-7.39v4.23h6.32v3.46h-6.32v7.09h-4.12Z"/><path class="b" d="M155.94,119.94h11.43v3.46h-7.31v3.66h6.23v3.46h-6.23v4.2h7.59v3.46H155.94Z"/><rect class="a" x="0.5" y="0.5" width="211" height="27"/></svg>