<svg xmlns="http://www.w3.org/2000/svg" viewBox="0 0 212 390"><defs><style>.a,.b{stroke:#000;stroke-miterlimit:10;}.b{fill:#fff;}</style></defs><rect class="a" x="9.5" y="20.5" width="195" height="369"/><path class="b" d="M48.78,119.94h4.13v7h6.3v-7h4.13v18.24H59.21v-7.61h-6.3v7.61H48.78Z"/><path class="b" d="M67.66,119.94h4.12v18.24H67.66Z"/><path class="b" d="M75.22,129.17c0-6.06,4-9.57,8.9-9.57A7.88,7.88,0,0,1,89.87,122l-2.17,2.64a4.75,4.75,0,0,0-3.45-1.45c-2.8,0-4.8,2.21-4.8,5.87s1.7,5.93,5.13,5.93a3.34,3.34,0,0,0,1.94-.54v-3.16h-3V127.9h6.69v8.41a8.8,8.8,0,0,1-6,2.21C79.13,138.52,75.22,135.31,75.22,129.17Z"/><path class="b" d="M94,119.94h4.12v7h6.3v-7h4.13v18.24h-4.13v-7.61h-6.3v7.61H94Z"/><path class="b" d="M118.42,119.94h4.13v14.78h7.2v3.46H118.42Z"/><path class="b" d="M132.92,119.94h4.13v18.24h-4.13Z"/><path class="b" d="M141.35,119.94h11.52v3.46h-7.39v4.23h6.31v3.46h-6.31v7.09h-4.13Z"/><path class="b" d="M156,119.94h11.44v3.46h-7.31v3.66h6.22v3.46h-6.22v4.2h7.59v3.46H156Z"/><rect class="a" x="0.5" y="0.5" width="211" height="27"/></svg>