<svg xmlns="http://www.w3.org/2000/svg" viewBox="0 0 212 390"><defs><style>.a,.b{stroke:#000;stroke-miterlimit:10;}.b{fill:#fff;}</style></defs><rect class="a" x="9.5" y="20.5" width="195" height="369"/><path class="b" d="M53.12,119.94h4.13v14.78h7.2v3.46H53.12Z"/><path class="b" d="M65.76,129c0-6,3.36-9.38,8.29-9.38S82.33,123,82.33,129s-3.36,9.54-8.28,9.54S65.76,134.94,65.76,129Zm12.35,0c0-3.66-1.57-5.82-4.06-5.82S70,125.32,70,129s1.57,6,4.06,6S78.11,132.64,78.11,129Z"/><path class="b" d="M83.94,119.94h4.23l1.26,8.52c.24,1.92.51,3.85.75,5.77h.11c.36-1.92.72-3.87,1.09-5.77l2-8.52h3.5l2,8.52c.37,1.85.73,3.82,1.1,5.77H100c.24-1.95.49-3.89.73-5.77l1.27-8.52H106l-3.24,18.24H97.52l-1.78-8.28c-.29-1.41-.54-2.88-.73-4.24h-.12c-.22,1.36-.45,2.83-.74,4.24l-1.73,8.28H87.33Z"/><path class="b" d="M114.08,119.94h4.13v14.78h7.2v3.46H114.08Z"/><path class="b" d="M128.58,119.94h4.13v18.24h-4.13Z"/><path class="b" d="M137,119.94h11.52v3.46h-7.39v4.23h6.31v3.46h-6.31v7.09H137Z"/><path class="b" d="M151.68,119.94h11.44v3.46h-7.31v3.66H162v3.46h-6.22v4.2h7.59v3.46H151.68Z"/><rect class="a" x="0.5" y="0.5" width="211" height="27"/></svg>