<svg xmlns="http://www.w3.org/2000/svg" viewBox="0 0 212 390"><defs><style>.a,.b{stroke:#000;stroke-miterlimit:10;}.b{fill:#fff;}</style></defs><rect class="a" x="9.5" y="20.5" width="195" height="369"/><path class="b" d="M61.92,119.94h4.22L70.91,129l1.8,4h.11c-.19-1.93-.52-4.49-.52-6.64v-6.44h3.93v18.24H72l-4.76-9.1-1.81-4h-.11c.19,2,.53,4.46.53,6.61v6.47H61.92Z"/><path class="b" d="M79.67,129c0-6,3.37-9.38,8.29-9.38S96.25,123,96.25,129s-3.37,9.54-8.29,9.54S79.67,134.94,79.67,129ZM92,129c0-3.66-1.57-5.82-4.06-5.82S83.9,125.32,83.9,129s1.57,6,4.06,6S92,132.64,92,129Z"/><path class="b" d="M105.29,119.94h4.12v14.78h7.21v3.46H105.29Z"/><path class="b" d="M119.79,119.94h4.13v18.24h-4.13Z"/><path class="b" d="M128.22,119.94h11.52v3.46h-7.39v4.23h6.31v3.46h-6.31v7.09h-4.13Z"/><path class="b" d="M142.89,119.94h11.44v3.46H147v3.66h6.22v3.46H147v4.2h7.59v3.46H142.89Z"/><rect class="a" x="0.5" y="0.5" width="211" height="27"/></svg>