<svg xmlns="http://www.w3.org/2000/svg" viewBox="0 0 212 390"><defs><style>.a,.b{stroke:#000;stroke-miterlimit:10;}.b{fill:#fff;}</style></defs><rect class="a" x="9.5" y="20.5" width="195" height="369"/><path class="b" d="M27.87,119.94H32.1l1.26,8.52c.24,1.92.51,3.85.75,5.77h.11c.36-1.92.72-3.87,1.09-5.77l2-8.52h3.5l2,8.52c.37,1.85.73,3.82,1.1,5.77h.11c.24-1.95.5-3.89.74-5.77l1.26-8.52h3.94l-3.24,18.24H41.45l-1.78-8.28c-.29-1.41-.53-2.88-.73-4.24h-.11c-.23,1.36-.46,2.83-.75,4.24l-1.72,8.28h-5.1Z"/><path class="b" d="M51.49,129c0-6,3.37-9.38,8.29-9.38S68.07,123,68.07,129s-3.37,9.54-8.29,9.54S51.49,134.94,51.49,129Zm12.35,0c0-3.66-1.57-5.82-4.06-5.82s-4.06,2.16-4.06,5.82,1.57,6,4.06,6S63.84,132.64,63.84,129Z"/><path class="b" d="M71.51,119.94h4.22L80.5,129l1.8,4h.11c-.19-1.93-.52-4.49-.52-6.64v-6.44h3.93v18.24H81.59l-4.76-9.1-1.81-4h-.11c.2,2,.53,4.46.53,6.61v6.47H71.51Z"/><path class="b" d="M90.13,119.94h5.16c5.57,0,9.16,2.77,9.16,9s-3.59,9.2-8.93,9.2H90.13ZM95,134.86c3.09,0,5.18-1.51,5.18-5.88s-2.09-5.72-5.18-5.72h-.79v11.6Z"/><path class="b" d="M107.91,119.94h11.43v3.46H112v3.66h6.22v3.46H112v4.2h7.59v3.46H107.91Z"/><path class="b" d="M123.25,119.94h6.57c3.87,0,7.05,1.34,7.05,5.68,0,4.19-3.18,6-7.05,6h-2.44v6.56h-4.13Zm6.24,8.4c2.17,0,3.33-.93,3.33-2.72s-1.16-2.41-3.33-2.41h-2.11v5.13Zm-.42,2.19,2.85-2.64,5.83,10.29h-4.62Z"/><path class="b" d="M140.41,119.94h11.52v3.46h-7.39v4.23h6.31v3.46h-6.31v7.09h-4.13Z"/><path class="b" d="M155,129.73v-9.79h4.13v10.21c0,3.57,1.12,4.81,3.17,4.81s3.23-1.24,3.23-4.81V119.94h4v9.79c0,6.13-2.49,8.79-7.21,8.79S155,135.86,155,129.73Z"/><path class="b" d="M173.7,119.94h4.13v14.78H185v3.46H173.7Z"/><path class="b" d="M27.87,153.54H32.1l1.26,8.52c.24,1.92.51,3.85.75,5.77h.11c.36-1.92.72-3.87,1.09-5.77l2-8.52h3.5l2,8.52c.37,1.85.73,3.82,1.1,5.77h.11c.24-2,.5-3.89.74-5.77l1.26-8.52h3.94l-3.24,18.24H41.45l-1.78-8.28c-.29-1.41-.53-2.88-.73-4.24h-.11c-.23,1.36-.46,2.83-.75,4.24l-1.72,8.28h-5.1Z"/><path class="b" d="M51.49,162.58c0-6,3.37-9.38,8.29-9.38s8.29,3.44,8.29,9.38-3.37,9.54-8.29,9.54S51.49,168.54,51.49,162.58Zm12.35,0c0-3.66-1.57-5.82-4.06-5.82s-4.06,2.16-4.06,5.82,1.57,6,4.06,6S63.84,166.24,63.84,162.58Z"/><path class="b" d="M71.51,153.54h4.22l4.77,9.07,1.8,4h.11c-.19-1.93-.52-4.49-.52-6.64v-6.44h3.93v18.24H81.59l-4.76-9.1-1.81-4h-.11c.2,2,.53,4.46.53,6.61v6.47H71.51Z"/><path class="b" d="M90.13,153.54h5.16c5.57,0,9.16,2.77,9.16,9s-3.59,9.2-8.93,9.2H90.13ZM95,168.46c3.09,0,5.18-1.51,5.18-5.88s-2.09-5.72-5.18-5.72h-.79v11.6Z"/><path class="b" d="M107.91,153.54h11.43V157H112v3.66h6.22v3.46H112v4.2h7.59v3.46H107.91Z"/><path class="b" d="M123.25,153.54h6.57c3.87,0,7.05,1.34,7.05,5.68,0,4.19-3.18,6-7.05,6h-2.44v6.56h-4.13Zm6.24,8.4c2.17,0,3.33-.93,3.33-2.72s-1.16-2.41-3.33-2.41h-2.11v5.13Zm-.42,2.19,2.85-2.64,5.83,10.29h-4.62Z"/><path class="b" d="M140.41,153.54h11.52V157h-7.39v4.23h6.31v3.46h-6.31v7.09h-4.13Z"/><path class="b" d="M155,163.33v-9.79h4.13v10.21c0,3.57,1.12,4.81,3.17,4.81s3.23-1.24,3.23-4.81V153.54h4v9.79c0,6.13-2.49,8.79-7.21,8.79S155,169.46,155,163.33Z"/><path class="b" d="M173.7,153.54h4.13v14.78H185v3.46H173.7Z"/><path class="b" d="M82.45,187.14h4.13v14.78h7.2v3.46H82.45Z"/><path class="b" d="M97,187.14h4.12v18.24H97Z"/><path class="b" d="M105.39,187.14H116.9v3.46h-7.39v4.23h6.32v3.46h-6.32v7.09h-4.12Z"/><path class="b" d="M120.06,187.14h11.43v3.46h-7.31v3.66h6.23v3.46h-6.23v4.2h7.59v3.46H120.06Z"/><rect class="a" x="0.5" y="0.5" width="211" height="27"/></svg>