<?xml version="1.0" encoding="utf-8"?>
<!-- Generator: Adobe Illustrator 24.1.2, SVG Export Plug-In . SVG Version: 6.00 Build 0)  -->
<svg version="1.1" id="Layer_1" xmlns="http://www.w3.org/2000/svg" xmlns:xlink="http://www.w3.org/1999/xlink" x="0px" y="0px"
	 viewBox="0 0 1366 768" style="enable-background:new 0 0 1366 768;" xml:space="preserve">
<g>
	<g>
		<path fill="#1a1a1a" d="M0.5,651.4c1,0,2,0,3-0.1c1.5-0.2,3.1-0.6,5-1.1c0.4-0.5,1.1-1.5,1.8-2.4c0.6-0.8,1.3-1.2,2.2-0.8
			c1.1,0.5,0.6,1.4,0.2,2.2c-0.1,0.3,0,0.7,0,1.2c2.4,0.9,4.8,0.5,7.2-0.1c0.5-0.1,0.9-0.9,1.1-1.5c0.4-1.4,0.6-2.8,1-4.1
			c0.2,1.8-0.4,3.5-0.5,5.5c0.9,0.2,1.8,0.5,2.6,0.5c6.2,0,12.4,0.1,18.7,0c0.8,0,1.7-0.5,2.5-1.2c0.5,0.3,1,0.6,1.5,0.9
			c2.1,0.9,3.9,0.3,5-1.8c0.5-0.9,1.1-1.2,2.2-0.8c0,0.8,0.1,1.6,0.2,2.4c2.4,1,5.5,1.2,9.1,0.5c0.9-1.5,1-3,0.6-4.8
			c-0.4-1.8-0.4-3.8-0.1-5.6c0.2-1,1.2-2,2-2.8c0.9-0.9,1.5-1.8,1.4-2.6c1.6-1.8,3.1-3.3,4.4-4.9c2.7-3,5.4-6.1,8.1-9.2
			c1.8-2,1.7-2.2,0.1-4.2c-2.1-2.5-2.9-5.6-3.5-8.7c-0.3-1.5,0.6-2.7,2.2-2.9c2.1-0.3,3.9,0.3,5.2,2c0.6,0.9,1,1.9,1.5,2.9
			c0.7,1.6,1.3,3.3,2.1,4.9c1.8,3.3,3.7,6.5,5.5,9.7c0.3,0.5,0.5,1.1,0.8,1.6c0.4,1,0.5,2-0.3,2.8c-0.8,0.8-1.7,0.4-2.6,0.1
			c-1.3-0.4-2.6-0.9-3.9-1.2c-1.8-0.4-3.1,0.3-4,1.9c-1.5,2.5-2.3,5.2-2.3,8.2c0,1.4-0.2,2.7-0.3,4.1c-0.1,1.4-0.3,2.9,1.2,3.9
			c0.4,0.2,0.6,1.4,0.3,1.8c-0.3,0.5-1.1,1-1.8,1.1c-1.1,0.2-2.2,0-3.3,0.1c-1,0.1-1.7,0.6-2.1,1.8c0.6,0.2,1.2,0.4,1.7,0.4
			c5.9,0.1,11.7,0.1,17.6,0.1c2.4,0,2.9-0.5,2.7-2.9c-0.1-1.5-0.6-3-0.9-4.5c-0.1-0.3,0.2-0.8,0.8-1.1c0.3,1.4,0.6,2.7,1,4.1
			c0.2,0.7,0.3,1.5,0.5,2.2c0.7,2.4,1.1,2.6,3.6,2.4c2.7-0.2,5.4-0.3,8.2-0.4c2-0.1,3.8-0.5,4.8-2.7c0.5,0.7,0.8,1.1,1.3,1.7
			c0.7-0.5,1.5-1,2.3-1.4c0.8-0.5,1.6-1,2.4-1.4c0.8-0.4,1.8-1.1,2.5,0c0.8,1.3-0.7,1.4-1.3,2c-0.1,0-0.1,0.1-0.2,0.5
			c2-0.1,3.9,0.8,6.2-0.4c-0.3-1-0.5-2-1-2.8c-1.5-2.2-2-4.7-2.5-7.2c-0.8-4.3-1.4-8.7-2-13.1c-0.1-1,0-2,0-3c0-2.1-0.8-2.7-2.7-1.9
			c-2.4,0.9-3.3,0.5-3.6-2c-0.4-2.5-0.1-4.8,2.3-6.6c3.7-2.6,7.3-5.3,11.9-6c1.5-0.2,2.9-0.9,4.4-1.4c0.5-0.2,1-0.5,1.4-0.5
			c0.4,0,1.1,0.2,1.3,0.5c0.2,0.3,0.1,1.1-0.2,1.3c-2.4,2.4-4.9,4.7-7.5,6.9c-0.8,0.7-1.7,1.1-2.5,1.8c-1.3,1.1-1.5,1.8-0.6,3.1
			c1.9,2.8,3.1,5.9,4.2,9c0.7,1.8,1.2,3.7,1.9,5.5c1.6,3.9,3.3,7.8,4.9,11.7c0.3,0.7,0.7,1.4,1.2,2c1.8,2.3,3.9,2.5,6.8,0.3
			c-2.1,0-3.7-0.7-4.5-2.4c-0.3-0.6-0.4-1.6,0-2c0.4-0.4,1.6-0.7,2-0.4c1.4,1.1,2.5,0.7,3.8-0.2c0.3,0.5,0.6,0.8,0.9,1.3
			c0.2-0.2,0.5-0.4,0.5-0.5c0.2-3,0.1-6-3.1-7.7c-0.5-0.3-0.8-0.8-1.2-1.3l0,0c4.1,1.1,4.9,4.6,5.6,8c0.6,3,1.1,3.5,4.2,2.9
			c0.2-0.1,0.5-0.1,0.8-0.1c2.2-0.3,2.2-0.3,1.8-2.7c-0.1-0.3,0.1-0.7,0.2-1.5c0.7,0.7,1.2,1.2,1.7,1.7c1.9-0.3,1.6-1.8,1.7-3.4
			c1.2,1.2,1,2.4,1.6,3.6c-2.2,0.2-2.6,1.7-2.8,3.3c-0.2,1.5,0.5,2.3,2,2.3c2-0.1,4-0.4,6-0.6c0.5-2.2,0.6-3.9-0.7-5.8
			c0.9-0.4,1.6-0.7,2.6-1.1c-0.3,1.1-0.7,1.9-0.6,2.7c0.2,4,1.6,4.9,5.8,4.2c1.6-0.3,3.1-1,4.9-0.6c1.2,0.3,1.8-0.5,2-1.8
			c0.2-1.8-0.5-3.1-2-3.3c-0.7-0.1-1.5,0.2-2.3,0.1c-0.6,0-1.2-0.4-1.8-0.6c0.2-0.5,0.3-1.2,0.7-1.5c1.8-1.1,1.7-2.5,1.2-4.2
			c-0.2-0.6-0.3-1.1-0.5-1.7c-0.5-2.4-0.2-2.8,2.1-3.4c1.2-0.3,1.8-1,2.2-2.2c0.7-2.2,1.6-2.7,3.8-2.2c1.2,0.3,2.5,0.7,3.7,1.1
			c1.7,0.6,3.4,1,5.1-0.2c0.6-0.4,1.4-0.6,1.7,0.3c0.2,0.5-0.1,1.3-0.4,1.8c-0.7,0.8-1.9,1.3-1.4,2.4c0.4,0.9,1.4,1.6,2.3,2.2
			c1.5,0.8,3,1.4,4.2,2.8c1.1,1.3,2.4,1.2,3.8-0.1c3-2.6,6-5.3,9-7.9c0.5-0.4,1-1.1,1.6-1.2c1-0.3,2.2-0.6,3.1-0.3
			c2.1,0.7,2.4,2,1,3.7c-1.4,1.8-3,3.5-4.6,5.1c-0.6,0.7-1.5,1.1-2.3,1.5c-1.7,1-3.4,1.9-4.9,3.1c-0.5,0.3-0.8,1.4-0.6,2
			c0.8,2.9,3.8,4.4,6.8,3.6c0.9-1.8-0.7-2.5-2.1-3.5c1.8-0.3,2.9,0.6,4.2,0.9c-0.3,0.6-0.5,1.1-0.7,1.6c2.3,1.1,2.8,0.8,3.1-1.3
			c0.2-1.2,0.9-2.3,1.5-3.6c-0.4-0.2-1.1-0.4-2-0.8c0.2-0.8,0.4-1.6,0.6-2.4c0.2-0.1,0.3-0.1,0.5-0.2c0,2.1,1.1,2.5,2.9,2.5
			c0.1-0.8,0.1-1.5,0.1-2.2c1.4,3.2,3.7,5.4,6.7,7.2c0.8-2.2-0.2-3.7-1.5-5c0.9-0.2,1.9-0.6,3-0.7c0.6,0,1.5,0.3,1.7,0.7
			c0.3,0.6,0.3,1.8,0,2c-2.1,1.2-1.2,2.7-0.8,4.2c2.4,0.2,4.8,0.6,7.1,0.7c1.4,0.1,3.5,0.5,3.8-1c0.3-1.4-0.5-3.4-1.4-4.6
			c-0.8-1.1-2.6-1.5-3.9-2.2c-0.3-0.2-0.5-0.5-0.6-0.9c2.4,1.3,5.5,1.6,6.2,5.1c0.1,0.6,0.5,1.2,0.8,1.9c1.1,2.1,4.1,3,6.1,1.6
			c0.6-0.4,1-1.1,1.3-1.8c0.3-0.6,0.4-1.3,0.7-2.1c0.8,0.4,1.9,1.2,2.1,1.1c0.7-0.8,1.4-0.3,2.1-0.2c0,0,0,0,0,0
			c-0.4,1-0.9,1.8-2.2,1.6c-0.3-0.1-0.8,0.4-1.5,0.8c2,0.5,1.6,0.6,5.4-1.6c0.5,1.2-0.6,1.9-0.7,2.8c1.4,0.9,6.6,1.6,7.8,0.9
			c0.5-0.3,0.9-1,1.1-1.5c0.1-0.5-0.2-1.1-0.3-1.7c2.4,0.8,3.5,2,3.6,3.8c1.6,0,3.3,0,5,0c0.4-1.9-0.2-3.4-1.8-4.5
			c0.6-0.8,1.1-1.4,1.7-2c-0.2,1.5,0.3,2.5,1.3,3.4c1,0.9,2,1.8,3.6,1.5c2.1-0.4,4,0.8,5.8,1.5c3.3,1.3,4.1,1.4,7.4-0.7
			c-0.2-0.7-0.3-1.4-0.6-2.5c2.2,1,3.7,0.1,4.8-1.3c-0.3-1-0.6-2-0.8-3c0.1-0.1,0.3-0.2,0.4-0.3c0.7,0.4,1.4,0.9,2.1,1.4
			c0.5-0.5,1.2-0.9,1.5-1.5c0.4-0.7,0.7-1.7,0.4-2.2c-0.3-0.6-1.3-1.2-2-1.3c-0.4,0-0.9,1-1.5,1.6c-1.6-0.7-0.8-2.3-1-3.5
			c-0.2-1.1,0.3-1.7,1-2.4c0.8-0.7,1.3-1.6,2.1-2.5c0.1,0.4,0.3,1,0.4,1.3c-0.9,1.4-1.7,2.5-2.5,3.7c2.3,1.1,4.1,3,7.1,2.5
			c-0.1-1.9-0.3-3.6-0.3-5.3c0-0.4,0.3-0.9,0.6-1.3c0.5,3.4,1.2,6.8,0.1,10.2c-0.4,1.2,0.7,2.2,2.7,2.5c-0.3-1.1-0.4-2.1-0.8-2.9
			c-0.4-0.9-0.2-1.5,0.3-2.1c0.4-0.4,1-0.8,1.6-0.9c0.3,0,1.1,0.6,1.1,0.8c-0.1,0.6-0.5,1.1-0.8,1.6c-0.2,0.2-0.6,0.3-0.8,0.5
			c1.3,3.8,2.7,4.9,7,4.9c2,0,4.1-0.1,6.1-0.4c0.9-0.2,1.6-1,2.2-1.5c0-0.5,0-0.8-0.1-0.9c-1.5-2.3-1.9-4.6-0.3-7.1
			c0.3-0.5-0.1-1.5-0.2-2.3c1.1,0.5,1.1,0.5,2.7,2.2c-2.7,0.9-1,3.5-2.2,5c2.2,2.5,2.2,2.5,4.7,0.9c1.1-0.7,2.1-1.6,3.4-2.5
			c0.2,0.2,0.6,0.5,1.1,0.9c-1.7,1.9-4.2,2.7-6,4.8c2.9,1.4,5.3-0.3,7.7,0c0.2-4.6-2.5-8-4.7-11.8c0.4-0.5,0.9-1.1,1.4-1.7
			c-0.3,1.8,0.6,2.9,1.5,4c2.1,2.3,2.8,5.2,3,8.2c0.3,3.6,2,4.7,5.2,3c0.9-0.5,1.7-1.3,2.6-2c0.2,0.1,0.7,0.5,1.2,0.5
			c1.1,0,2.2-0.3,3.3-0.4c1.1-0.1,2.2-0.1,3.3,0.1c1.9,0.2,3.9,0.5,5.8,0.7c0.3,0,0.6-0.2,0.9-0.3c-0.1-1.7-1.7-1.6-2.4-2.7
			c0.1-0.4,0.2-1.1,0.2-1.7l-0.1,0c0.7,0.3,1.4,0.7,2.1,1l-0.1,0c1.1,1.3,1.1,1.3,2.6,0l0,0c-0.3,0.9-0.6,1.7-1.1,2.8
			c1.8,0.4,2.4-1.2,3.4-2.3c0.7,0.3,1.4,0.6,2.4,1.1c-0.9,0.5-1.6,0.8-2.7,1.4c1.5,0,2.6,0,3.4,0c1.3-1,2.4-1.9,3.6-2.8
			c1.7-1.3,3.5-2.6,5.2-4c0.7-0.5,1-0.5,1.5,0.4c-2.4,1.8-4.7,3.8-5.6,6.9c0,0.2,0.2,0.4,0.4,0.6c1.9-1.1,3.7-2.1,5.4-3.3
			c0.6-0.4,0.8-1.3,1.3-2.3c0.9,1.2,0.4,2.4,0.5,3.4c-0.8,0.2-1.8,0.2-2.2,0.6c-0.8,1.1-1.7,2.4-2,3.8c-0.3,1.5,0,3.2,0.2,4.8
			c0,0.2,0.4,0.6,0.7,0.6c0.4,0,0.8-0.2,1.1-0.5c0.7-0.8,1.3-1.8,2.1-2.5c0.5-0.5,1.1-0.9,1.7-1c1.8-0.5,2.4-1.7,2.7-3.3
			c0.5-2.2,0.5-2.2,3.3-2.1c-1.8,1.2-1.6,2.9-1.6,4.5c0,1.3,0.9,1.8,2.1,1.2c0.9-0.5,1.8-1,2.5-1.7c1.1-1.2,2.5-1.6,4.1-1.8
			c1.5-0.1,2.9-0.7,4.5-1c1.2,1.1-0.8,2-0.3,3.3c1.7,0.8,3.3,1.4,5.3,0c1.3-0.9,2.9-1.2,3.8-2.8c0.7-1.2,1.9-0.8,3.1,0.2
			c0.3-1.6,0.5-2.7,0.7-3.9c-1-0.4-1.8-0.7-2.7-1.1c-0.2,0.3-0.6,0.8-1.1,1.6c-0.1-0.6-0.3-0.9-0.2-1c1-1.2,2-1.7,3.3-0.9
			c2.4,1.3,4.9,1.2,7.4,0.6c1-0.2,2-0.2,2.7-0.2c1.6-1.1,3-2,4.4-2.9c1.6-1.1,3.3-2,4.9-3.2c0.7-0.5,1.1-0.7,1.7,0.1
			c-2.2,1.7-4.4,3.4-6.7,5.2c1.6,0.8,2.9,1.6,4.2,2.1c1.6,0.7,2.9,1.6,3.7,3.3c0.9,1.9,6,3.1,8,2.2c1.9-0.8,3.1-2,3.3-4.1
			c0-0.2,0.1-0.3,0.1-0.5c0.7-1.5,1.2-3,0.1-4.7c0.8,0.5,1.7,1.1,2.7,1.7c0.9-2.1,2.5-3.8,0.9-6.3c2.2,0.4,2.6,3.6,5.5,2.1
			c-1,1.5-0.5,2.4,0.3,3.4c1.5,1.8,2.7,3.8,4.2,6c0.3-0.1,0.9-0.2,1.5-0.4c0-2.3,0-2.3-1.1-3.5c0.9-0.3,1.4-1.1,0.7-1.7
			c-1.4-1.4-2.3-3.1-3.1-4.9c-0.2-0.4-0.7-0.7-1.3-1.1c0.6-0.7,1.1-1.3,1.6-1.9c-0.3,1.5,0.3,2.5,1.2,3.4c1.5,1.6,2.5,3.4,3.1,5.5
			c0.2,0.6,0.8,1.3,1.4,1.6c0.9,0.4,1.8,0.7,1.8,1.8c0,1.3-0.9,1.7-2,1.9c-0.2,0-0.3,0.2-0.7,0.4c0,1.7-0.1,3.5,0,5.3
			c0,0.5,0.5,1.3,0.8,1.4c0.5,0.1,1.3-0.2,1.7-0.6c0.4-0.4,0.6-1.2,0.8-1.8c0.3-0.8,0.8-1.4,1.7-1.1c1,0.3,0.9,1.1,0.5,1.9
			c-0.2,0.4-0.3,0.8-0.6,1.5c3.2,0.6,6.2,0.8,9.2-0.3c-0.8-0.6-2.4,0.8-2.5-1.4c1.2-0.5,2.5-1.1,3.9-1.7c-0.3-2.7-0.5-5.2-0.7-7.9
			c-1.2,0.1-2,0.2-2.9,0.2c0-0.1,0-0.2-0.1-0.4c0.8-0.2,1.7-0.5,2.7-0.8c-0.2-0.8-0.4-1.5-0.5-2.2c0-0.2,0.4-0.6,0.6-0.7
			c0.2-0.1,0.8,0.3,0.8,0.4c-0.3,2.3,1.5,2.7,3,3.4c0.2,0.1,0.2,0.4,0.3,0.7c-0.7-0.2-1.4-1.1-2.2-0.2c0.3,2,0.6,4,0.9,6
			c2,1,2.6,1,2.8-0.2c0.2-1.3,1.3-1.5,2.4-2.1c-1.5-1.4-2.7-2.5-3.9-3.7c2.2,0.7,3.9,1.7,5.1,3.9c1.1,2,3.3,3.2,5.5,3.8
			c1.8,0.5,2.5,0,2.9-1.8c0.3-1.2,0.3-2.5,0.5-3.7c0-0.2,0.6-0.4,1.2-0.7c-0.3,2.3-0.6,4.2-0.9,6.1c1,0.3,1.8,0.7,2.7,0.9
			c0.7,0.1,1.5,0.2,2.1,0c2.8-0.9,5.7-1.4,8.6-0.3c0.4-1-0.4-1.4-1-1.8c-0.7-0.5-1.4-1.1-2.1-1.7l0,0c1.9,0.6,3.3,1.6,4.3,3.6
			c0.8,1.6,2.9,1.7,4.7,1.8c0.6,0,1.1-0.1,2.1-0.2c-0.3,0.8-0.4,1.4-0.8,1.7c-0.8,0.6-1.7,1.1-2.6,1.7c-2.3,1.4-2.3,2-0.4,4.2
			c1.3-0.8,2.6-0.9,4.2-0.6c2,0.3,4.2-0.1,6.3-0.5c0.8-0.2,1.5-1.1,2.4-1.8c-1-1-1.7-1.7-0.7-2.9c0.5-0.6,0.3-1.9,0.4-2.9
			c0.6,0.3,1.1,0.5,2,1c-0.6-1.6-1-2.7-1.3-3.8c-0.2-0.7-0.2-1.4-0.3-2.2c0.4,0.2,0.9,0.4,1.3,0.7c0.1-0.2,0.1-0.4,0.2-0.6
			c-0.5,0-1,0-1.5,0c0.4-0.5,0.8-0.9,1.4-1.7c0.6,1.1,1,1.9,1.7,3.3c0-1.2,0-1.9,0-2.5c0.6-0.2,1.1-0.3,1.7-0.4
			c-2.4-0.9-2.9-2.6-2.6-4.7c0.1-0.6,0.5-1.4,0.9-1.5c0.5-0.1,1.2,0.3,1.7,0.7c0.4,0.4,0.5,1,0.8,1.7c0.8-0.1,1.5-0.1,2.3-0.2
			c0,0.2,0,0.4,0,0.4c-0.6,0.3-1.2,0.5-2,0.9c0.2,0.7,0.3,1.3,0.5,1.9c-0.6,1-0.7,1.9,0.3,2.9c0.3-1.6,0.3-1.6-0.3-2.9
			c1.6-1.1,2.2,0.7,3.3,1.3c1.2-0.4,1.7-1.1,1.4-2.6c-0.6,0.1-1.1,0.3-1.7,0.4c0-0.2-0.1-0.5,0-0.7c0.5-1.5,1.1-3,1.6-4.5
			c0.9-2.5-0.4-4.4-1.9-6.2c-0.2-0.3-0.3-0.7-0.2-1.1c1.7,2.1,3.7,4.2,2.9,7.3c2.6-0.6,2.7-0.8,3-3.8c1.5,0.9,1.1,2.5,1.7,4
			c-1.7-0.2-2.3,0.6-2.7,1.9c-0.3,0.7-0.9,1.3-1.5,2.2c0.5,0.8,1.3,1.7,1.6,2.7c0.3,0.8,0.1,1.9,0.1,3.1c0.7,0.4,1.4,1.1,3,0.7
			c1.2-0.3,2.7,1.1,4.1,1.7l0,0c0,0.7,0.1,1.3,0.1,2.1c2.6,0.4,5,1.3,7.7-0.4c0.1,0.9,0.2,1.6,0.2,2c1.4-0.4,2.7-0.7,4.1-1.1
			c1.9-0.6,3.8-1.3,5.7-2.1c0.9-0.4,1.5-0.6,2.2,0.6c-1.9,1.1-3.7,2.2-5.5,3.1c-1.9,0.9-3.8,1.6-5.9,2.5c1.3,0.3,2.4,0.6,3.7,1
			c0.2-0.3,0.5-0.8,0.8-1.2c1.2-1.7,2.3-1.9,3.8-0.5c0.6,0.5,1,1,1.9,1c3-0.2,4.6-2.6,3.6-5.5c-0.3-0.8-0.6-1.6-0.8-2.4l0,0
			c1.5,1.9,3.1,3.8,2.5,6.5c2,0.6,3.1,0.4,3.9-0.8c1.6-2.5,1.6-2.5,4.4-1.9c0.3,0.1,0.6,0,1.1-0.1c-2.6-1.9-2.6-2-2.4-4.4
			c0.1-0.9,0.2-1.7,1.3-1.8c1.2-0.1,1.4,0.6,1.6,1.5c0,0.3,0.3,0.6,0.4,0.9c2.5,0.8,4.1-0.7,5.5-2.3c1.7-1.9,0.1-3.8-0.2-5.8
			c0.3,0.4,0.6,0.7,0.8,1.1c1.2,2.4,0.5,5.2,1.4,7.7c0.4,1.1-0.5,2.1-1.9,2.1c-0.9,0-1.3,0.5-1.1,1.3c0.2,0.9,1,0.9,1.7,0.6
			c0.8-0.4,1.6-1,2.4-1.5c1-0.7,2-1.5,3.7-1.4c-0.3,1-0.5,1.9-0.8,2.7c0.8,0.6,1.2,0.2,1.3-0.5c0.2-2.6,1.7-3.5,4.1-3.5
			c0.7,0,1.4-0.2,2-0.4c2.1-0.8,2.7-2.9,1.2-4.7c-0.2-0.2-0.4-0.3-0.6-0.5c-0.6-0.7-0.7-1.6-0.1-2.3c0.6-0.7,1.5-0.9,2.3-0.4
			c0.9,0.5,1.3,1.4,0.9,2.4c-0.2,0.6-0.8,1.1-1.1,1.6c1.1,1,2.5,0.8,3.2-0.5c1.7-3.2,3.2-6.5,4.8-9.8c0.2-0.4,0.7-0.7,1.4-1.4
			c0.1,1.3,0.2,2,0.2,2.7c1.3-0.1,1.4-1.1,1.7-1.8c0.3-0.8,0.5-1.6,0.9-2.4c0.9-2,1.5-2.2,3.8-1.3c-1.4,0.1-1.1,1.1-1.6,2.4
			c1.3-0.8,1.4-1.6,1.5-2.4c0.7,0.7,1.4,1.4,2.1,2.1l0,0c-0.1,0.6-0.3,1.2-0.4,1.8c0.1,0.1,0.3,0.2,0.4,0.3c0.5-0.7,1-1.4,1.6-2.1
			l0,0c0.6,0.2,1.2,0.5,1.9,0.8c6.4-2.6,7-3.1,8.6-7.3c0.1,2.1-0.3,3.4-1.8,4.4c-1.4,1-2.7,2.2-4.2,3.5c1.6,1.6,4.6,0.7,5.4,3.9
			c-1.1-0.6-1.8-1-2.6-1.4c-1-0.5-1.9-1.1-2.9-1.5c-2.6-1-2.7-1-4.7,1.6c3.5,0.2,6.9,0.6,9.8,3.1c1.4-1.5,3-1.4,5-0.7
			c1.5,0.5,3.3,0.1,5-0.1c0.9-0.1,1.7-0.6,2.6-0.9c0.2,0.7,0.3,1.2,0.4,1.7c-1.2,0.5-1,1.3-0.2,1.9c0.2,0.2,1.1,0,1.3-0.2
			c0.7-0.9-0.1-1.3-0.8-1.6c-0.1,0-0.2-0.1-0.2-0.1c0.3-0.1,0.8-0.3,1-0.2c1.7,1.6,3.5,0.7,5.1,0c1.7-0.7,3.2-0.7,4.5,0.4
			c1.3,1.1,2.7,1.2,4.5,0.4c-0.7,1.8-2.2,1.7-3.3,2.7c-0.7-2.9-3.6-1-4.9-2.8c-2,1.5-4.6,2.1-6.1,4.3c0.7,0.5,1.2,1,1.7,1.4
			c0.1,0.1,0.3,0.3,0.3,0.3c2-0.6,4.1,0.9,6.2-0.4c1.1-0.7,2.5-1,3.8-1.5c0.8-0.4,1.6-0.8,2.5-1.3c2.8,1.2,4,0.4,4-2.9
			c0-2.4,0-4.9,0-7.2c0.7,0.2,0.7,0.2,1.2,3.8c0.2,1.5,0.5,3,0.8,4.7c1.6-0.7,2.5-2.5,4.7-2.1c-1.4,1.1-2.6,2.1-3.9,3.1
			c2.4,0.8,2.4,0.8,3.4-0.9c0.8,0,1.6,0,2.7,0c0.8-1.3,1.6-2.6,2.6-4.1c-2-0.1-1.8,1.8-2.9,2.1c-0.9-0.5-0.8-1.4-0.5-2
			c0.7-1.4,1.6-2.6,2.4-3.9c0.1-0.1,0.3-0.3,0.4-0.2c1.9,1.2,4.4-0.7,6.1,1.2c0.6,1.9-1.4,4.3,1.3,5.7c-0.1,0.8-0.3,1.6-0.4,2.5
			c1.3-0.2,2.3-0.4,3.4-0.5c-1.4,1.1-0.8,2.5-1,4c1-0.9,1.8-1.6,2.6-2.4c0.5-0.1,0.9-0.3,1.4-0.4c-0.5-0.8-1.3-1.6-1.2-2
			c0.3-0.9,1.1-1.6,1.7-2.4c0.3-0.4,0.9-0.5,1.2-0.9c1.6-1.6,3.6-2,5.6-1.1c1.5,0.7,2.3-0.5,3.7-0.9c0.1,0.5,0.1,1,0.3,1.8
			c5-2.8,10.1-1.6,15.4-0.2c-0.6-1.8-1-3.2-1.4-4.6l0,0c0.9,1.6,1.8,3.2,3,5.3c2.9-0.1,6.5,0.4,9.4-2.7c-0.3-0.7-0.5-1.5-0.9-2.1
			c-1-1.4-0.9-2.7-0.2-4.1c0.7-1.3,1.3-2.6-0.3-4.2c2,0.3,2.4,1.7,3.3,2.3c-0.5,0.9-1,1.7-1.2,2.5c-0.2,0.9-0.2,1.8-0.3,2.8
			c0.5,0.5,1.3,1.2,2.1,2c1.9-0.7,3.8-1.6,5.1-3.8c0.5,0.3,1,0.7,1.7,1.1c-1.8,1.2-3.3,2.3-4.7,3.3c-1.3,1-2.4,2.1-4.1,2.5
			c-1.4,0.3-1.6,1.8-2,3.1c1.3,0,2.5,0,3.5,0c0.5-1,0.9-1.8,1.5-3c0.9,1.3,1.4,2.6,3,2.5c0-0.4,0-0.8,0-1.2c0.3-3.3,0.3-3.3,3.5-4.2
			c0.5-1.8,0.5-3.5-1-5.1c-0.6-0.6-0.9-1.4-1.4-2.1c-0.5-0.8-1-1.7-1.7-2.9c0.6-0.5,1.3-1.2,2-1.9c0.1,0.1,0.2,0.2,0.4,0.3
			c-0.3,0.6-0.6,1.1-0.9,1.6c3.8,5.5,5,8.6,4.4,11.4c-0.6-0.2-1.2-0.3-1.9-0.6c0.1,0.5,0,0.8,0.2,0.9c1.3,0.9,2,2,1.3,3.5
			c-1,2,0.3,3.4,1.4,4.5c1,1.1,2.6,1.7,4.3,2.6c0.5-1.8,0.9-3.1,1.2-4.5c0.2-1,0.9-1.6,1.8-1.4c0.6,0.1,1.4,0.7,1.6,1.3
			c0.4,0.8-0.1,1.7-0.9,2.1c-0.4,0.2-0.8,0.2-1.2,0.2c-1.8,0.2-1.9,0.5-1.6,2.5c2.4-0.1,4.7-1.3,7.2-1.2c0.1,0.2,0.1,0.4,0.2,0.6
			c-0.8,0.4-1.5,1.1-2.3,1.1c-2,0.1-3.4,0.9-4.5,2.4c-0.5,0.6-1.3,1.1-2.1,1.7c0.4,0.7,0.7,1.3,1.3,2.1c1.3-1.5,2.6-2.4,4.5-2
			c-0.5-0.3-0.9-0.6-1.4-1c2.1,0.3,3.9-0.1,5.6-1.4c0.1-1-0.8-2.4,0.6-3.2c0.1,0.7,0.2,1.4,0.3,2.2c1.1-0.3,2-0.6,2.9-0.9
			c0-0.2,0-0.4,0-0.5c-1.1-0.2-2.2-0.5-3.3-0.7c0.8-0.9,1.7-0.9,2.8-0.6c1.4,0.3,2.7,0.5,3.7-1.2c0.9-1.4,3.6-1,5.1,0.7
			c0.5-1.3,0.1-2.3-0.8-3.1c-0.8-0.8-2.1-1.3-2.3-2.8c1.9-0.3,2.7,1.2,3.8,2.5c2.5-1.5,4.4-3.7,6.3-5.9c-1.1-0.7-2-1.3-3.1-2
			c1.5-0.9,2.5-0.4,3.8,0c2.6,1,4.7,2.4,4.7,5.6c0,0.8,0.4,1.4,1.3,1.7c0.5,0.1,0.9,0.4,1.5,0.8c-1.9,1.4-2.9-0.6-4-0.5
			c-0.2-1.1-0.3-2.1-0.6-2.9c-0.3-0.9-0.9-1.7-1.5-2.6c-1.7,0.2-1.9,2.1-2.9,3.1c-1,1.1-1.9,2.4-3,3.9c1,0.4,1.9,0.8,2.8,1.2
			c1.3,0.6,2.6,1.1,4,1.6c0.2,0.1,0.5,0.3,0.7,0.3c3.1,0,6.3,0.1,9.4,0c0.6,0,1.3-0.5,1.7-1c1.4-1.7,2.9-1.3,4.3,0.2
			c1.4,1.5,4.5,2.3,6.2,1.1c1.8-1.3,3.3-1,4.8,0.4c0.8-0.5,1.6-0.8,2.2-1.3c0.4-0.3,0.6-1.1,0.5-1.5c-0.1-0.4-1-0.8-1.4-0.7
			c-2.1,0.9-3.8,0-5.6-0.9c-0.6-0.3-1.4-0.3-2.2-0.3c-0.5,0-1.1,0-1.8,0c0.6-2,2.6-1.5,3.1-2.4c2,0.6,3.8,1.1,5.5,1.5
			c0.3,0.1,0.9-0.2,1-0.5c0.1-0.3-0.1-0.8-0.3-1.1c-0.5-0.7-1.1-1.3-1.6-1.9l0,0c0.4,0.2,0.9,0.4,1.3,0.7c1.4,1.1,2.8,2.2,4.7,1.5
			c0.1,0.4,0.3,0.7,0.2,0.7c-1.7,2-0.5,4.2-0.3,6.3c0.1,1,0.9,1.1,1.7,1.2c2,0.2,3.7-0.5,5.2-1.6c0.3-0.2,0.7-0.5,1-0.8
			c0.5-0.6,1.2-1.3,1.9-0.7c0.4,0.4,0.4,1.3,0.5,2c-0.4,0.1-0.8,0.3-1.1,0.4c0.1,0.1,0.1,0.2,0.2,0.3c0.3-0.3,0.6-0.5,0.9-0.8
			c2.6-1.2,5.3-1.1,8-1.4c0.5,0.1,0.9,0.2,1.4,0.4c0-0.1,0-0.2,0-0.2c-0.5,0-1-0.1-1.5-0.1c-1.8-1.1-3.7-2.1-4.5-4.2
			c1,0,1.9,0.1,2.9,0.1c0.4-2.3,0.4-2.3-1.3-2.6c-0.5,0.9-1,1.7-1.6,2.5c-0.7-0.2-1.5-0.2-2.2-0.5c-1-0.3-2-0.7-3-1.2
			c-0.3-0.1-0.9-0.6-0.8-0.7c0.6-1.4-1.1-2.7,0.1-4.1c0,0-0.1-0.2-0.1-0.2c-0.1-0.2-0.3-0.3-0.4-0.5c0.1-0.2,0.1-0.7,0.2-0.7
			c1.8-0.3,3.7-0.7,5.5-0.8c1.7,0,2.2,1,1.6,2.7c-0.7-1.2-1.4-0.5-2,0.3c0.7-0.1,1.4-0.2,2-0.4c-0.2,0.6-0.4,1.2-0.8,2.4
			c0.8-0.5,1.1-0.7,1.4-0.9c1.2-1.2,3.8-1.4,5.1-0.4c0.3,0.2,0.6,0.8,0.5,1.1c-0.1,0.4-0.5,0.9-0.9,1c-0.6,0.2-1.3,0.2-2.1,0.4
			c0,1.7-0.7,3.5,0.9,4.5c1.6,1,3.4,2.1,5.6,0.7c0-0.7,0-1.4,0-2.1c0.3-0.1,0.5-0.2,0.6-0.1c1.4,0.9,2.8,0.4,4.2-0.1
			c1.4-0.5,2.9-0.8,4.3-1.4c1.2-0.6,2.5-1.2,3.3-2.3c1.2-1.6,2.6-2,4.4-1.8c1.4,0.1,2.9,0.5,4-1.3c0.1,1.5-0.8,2.3-1.4,3.4
			c-1.2-0.6-2.3-1.2-3.5-0.2c-0.6,0.5-1.2,1-0.9,1.9c0.2,0.7,0.7,0.9,1.6,1c1,0.1,2,0.5,2.9,0.8c2.3,0.9,2.5,0.9,3.9-0.9
			c1.5,0.4,3,0.6,4.3,1.2c0.8,0.3,1.3,1.3,2,2c3-0.2,3-0.2,2.7-2.4c-0.5,0.1-1,0.2-1.4,0.2c-0.4,0-0.8,0-1.6,0
			c0.6-1,1.1-1.6,1.5-2.3c-1.2-2.2-1.9-2.5-4.2-2c-0.9,0.2-1.8,0.3-2.8,0.4l0,0c1.6-0.6,3.1-1.2,4.7-1.9c0.6-1.6,1.3-3.2,2-4.9
			c-0.3-0.5-0.6-1.2-1.1-2.1c1.9,0.3,2.1,1.8,3.4,2.6c-2.6,1.2-0.8,3.7-2.2,5.1c2.4,2.2,4.4,2.1,7.7-1.8c0.4,0.4,0.8,0.8,1.3,1.2
			c-1,0.8-1.8,1.3-2.6,2c-0.7,0.6-1.7,0.7-1.7,2c0,0.8-2.4-0.2-1.4,1.8c3.2-0.1,6.9-2.7,9.6,1.2c2.2-1.6,4-3.6,7-2.9
			c0.3-0.7,0.6-1.3,0.9-2c0.6,0.3,1,1.5,2,0.6c-1.1-3.9-5.1-6.5-8.5-5.1c0.9,0.2,1.4,0.2,1.9,0.4c0.9,0.2,1.7,0.8,1.5,1.8
			c-0.1,0.6-0.8,1.4-1.3,1.6c-1,0.4-1.8-0.1-2.3-1.1c-0.1-0.2-0.2-0.5-0.2-0.7c0.6-1.8-0.3-2.3-1.9-2.2c-0.1,0-0.3-0.2-0.4-0.3
			c0-0.1,0-0.2-0.1-0.2c4.8-1.5,9.2,0.1,12.8,5.3c2-0.6,3.8,0,5.7,1.1c0.8,0.5,2,0.2,3.3,0.3c-0.6,0.6-1.1,1.2-1.8,1.8
			c0.3,0.1,0.5,0.3,0.7,0.3c2.2-0.4,3.8,0.1,4.6,2.5c0.2,0.6,1.3,1,2,1.1c0.8,0.2,1-0.2,1.6-1.5c-1-0.1-2.1-0.3-3.3-0.5
			c0.7-1.4,1.6-1.9,2.8-1.9c0.9,0,1.9-0.1,2.8-0.2c1.4-0.1,2.9-0.2,3.5-2c0.2-0.7,0.9-0.7,1.4,0c-0.1,0.2-0.1,0.5-0.2,0.6
			c-1.7,1.7-1.3,3.1,1,3.7c0.4,0.1,0.8,0.1,1.3,0.1c0.4,0.1,0.8,0.1,1.6,0.3c-0.7,0.8-1.1,1.3-1.6,1.8c0.2,0.1,0.4,0.2,0.7,0.2
			c1.8,0.1,3.6,0,5.1-1.2c0.1-0.1,0.1-0.1,0.2-0.1c2.5,0,4-1.9,5.8-3.2c3-2.2,3-2.1,6.3-2.2c-0.2-0.6-0.4-1.2-0.6-1.9
			c0.2,0,0.5-0.2,0.5-0.1c0.8,0.7,1.5,0.8,2.5,0.3c2.7-1.3,5.5-2.3,8.5-2.3c0.8,0,1.6,0.1,2.8,0.2c-0.9,1.3-1.9,1.4-2.9,1.3
			c-4.2-0.3-7,1.5-8.9,5.7c1.8,1.2,3.5,2.5,5.8,2.7c1,0.1,1.7-0.1,2-1.1c0.2-1,0.5-1.9,1.7-1.9c1.1,0,1.3,0.9,1.7,1.6
			c0.1,0.2,0.4,0.3,0.4,0.4c1-0.5,2-0.9,2.9-1.3c0.2,0.1,0.3,0.2,0.5,0.3c0.3-1.5,0.8-2.9,1-4.4c0.2-1.2-0.7-1.4-1.6-1.2
			c-0.3-0.3-0.6-0.7-0.9-1c0.6-0.6,1.2-1.1,1.8-1.7c0.1,0,0.3,0,0.3,0.1c1.8,2.7,2.6,3,5.7,2.5c0.8-0.2,1.7-0.3,2.5-0.4
			c1.1-0.1,2,0.2,2.4,1.7c-0.9,0.3-1.8,0.5-3.3,1c1.2,0.3,1.8,0.4,2.4,0.5c0,0.5,0.1,1.1,0.1,1.8c0.4-0.2,0.6-0.3,0.8-0.5
			c1.3-1.6,3.9-1.9,5.4-0.8c0.8,0.6,0.7,1.7-0.3,2c-0.3,0.1-0.7,0.1-1,0.1c-0.3,0.1-0.7,0.1-1.2,0.3c0,0.8,0,1.5,0,2.6
			c2,0.1,3.8,0.3,5.7,0.4c2,0.1,3.9,0.1,5.9,0.2c1.3,0,2.2-0.2,3-1.4c0.5-0.8,1.7-1.2,2.7-1.8c-0.1-1.1-0.1-2.4-0.2-3.7
			c0-0.9,0.4-1.6,1.3-1.5c0.5,0,0.9,0.8,1.2,1.3c0.2,0.3,0.4,0.7,0.6,1.1c1.2,0.1,2.4,0.2,3.5,0.1c0.6-0.1,1.3-0.5,1.5-1
			c0.7-1.8,1.7-3.6,0.5-5.6c-0.3-0.6-0.4-1.3-0.6-1.9l0,0c1.4,1.6,2.3,3.3,1.4,5.5c-0.5,1.1,0.1,1.7,1.2,2.2c-0.6,1.1-1.2,2-1.7,3
			c-1.1,0.1-2.2,0.2-3.4,0.3c0.2,1.1,0.5,2.2,0.7,3.2c3.4,1.3,7.3,0,9.3-3.1c0.3-0.5,0.5-1.1,0.9-1.5c0.8-0.8,1.6-0.8,2.2,0.4
			c0,0,0,0,0,0c-1.1,0-1.4,0.7-1.6,2c1.1-0.7,2.1-1.6,3,0.1c-0.2,0.4-0.5,0.9-1,1.7c1.1-0.5,1.8-0.9,2.7-1.3
			c0.1,2.3,1.5,2.6,3.3,2.6c3-0.1,6,0,8.9,0c1.1,0,2.2,0,2.8-1.3c0.2-0.4,0.9-0.6,1.5-0.7c0.6-0.1,1.2,0,1.8,0
			c0.3-0.6,0.5-1.2,0.9-2c0.1,0.5,0.3,0.7,0.2,0.9c-0.2,0.9-0.1,1.7,0.9,1.9c0.9-0.6,1.6-1.4,2.5-1.5c0.8-0.1,1.8,0.5,2.5,1
			c1.4,0.9,2.9,1.4,4.6,1.4c1.6,0,3.2-0.5,4.8,0.4c0.3,0.2,0.8,0,1.2-0.1c2-0.3,4-0.7,6-0.9c0.8-0.1,1.8,0.5,2.6,0.9
			c1.3,0.6,2.4,1.1,3.7-0.2c0.5-0.5,1.4-0.5,2.1-0.8c1.1-0.4,2.2-0.7,3.3-1.1c0.3,0.5,0.8,1.2,1.3,2c1.1-0.2,1.4-0.9,1.5-1.8
			c0.3-1.8,0.7-3.5,0.9-5.2c0.1-0.6-0.1-1.2-0.1-2c0.5,0.2,1,0.4,1.4,0.6c-0.2,1.9-0.4,3.6-0.7,5.5c2.5-0.5,3.5-1.8,4-4.1
			c1-5,0-9.8-0.9-14.6c-0.2-0.9-0.4-1.8-0.5-2.8c-0.2-1.5-0.5-2.8-1.7-3.8c-1.2-1-1.1-2.3-0.1-3.6c0.9-1.2,2.7-1.7,4.1-1
			c1.2,0.6,2,2,1.5,3.2c-1.1,2.3-0.2,4.2,0.8,6.3c0.8,1.8,1,3.9,1.4,5.9c0.4,1.9,0.9,3.7,1.5,6c1-0.6,1.7-0.9,2.2-1.4
			c0.6-0.6,1.3-0.9,2-0.4c0.8,0.6,0.5,1.3,0,2c-0.2,0.3-0.2,0.6-0.3,1.1c0.6,0.4,1.1,0.9,1.8,1.4c-0.3,0.1-0.5,0.2-0.6,0.2
			c-0.9-0.2-1.9-1.3-2.6,0.5c0.4,0.5,0.9,1.1,1.5,1.8c2.3-1,4.6-1.9,6.8-2.9c0,0,0,0,0,0c-0.6,0.8-1.3,1.5-2,2.5
			c0.5,0.3,0.8,0.6,1.3,0.7c2,0.7,4.1,1.3,6,2.1c1.1,0.4,1.9,0.5,2.8-0.4c0.9-1,1.9-1.3,3.1-0.2c0.4,0.4,1.1,0.4,1.6,0.6
			c0.5,0.2,1.2,0.3,1.6,0.7c0.6,0.6,1.1,0.8,1.9,1c1.2,0.2,2.4,0.9,2.6,2.4c0.1,1.2,0.7,1.9,1.8,1.5c1.6-0.6,3.1-0.5,4.7-0.6
			c1.2-0.1,2.4-0.6,3.5-0.9c-0.2-2.8-2.5-3-4-4c-1.6,0.8-3.2,1.7-5.3,2.7c0.2-1.6,0.6-2.4,1.6-2.6c1.6-0.3,2.9-0.9,3.1-2.8
			c1.6,0.7,3,1.3,4.3,2c1.4,0.8,2.7,1.5,4.3,0.3c0.1,0.2,0.2,0.3,0.2,0.5c-0.4,0.4-0.9,0.7-1.2,1.2c-0.3,0.4-0.6,1.1-0.5,1.5
			c0.2,0.4,0.9,0.7,1.4,0.7c1.8,0,2.4-0.5,2.8-2.2c0.4-1.7,0.8-2,2.4-1.2c0.4,0.2,0.8,0.3,1.2,0.5c0.4,0.2,0.7,0.4,1.3,0.8
			c0.5-1.7,1.2-3.2,1.4-4.7c0.1-0.7-0.5-1.6-0.9-2.3c-1-1.8-0.9-2.5,1-3.4c1.2-0.5,1.8-1.2,1.7-2.5c-0.2-1.4,0.7-2.2,1.7-2.9
			c1.3-0.8,2.6-1.5,2.9-3.3c0.3,1,0.5,2,0.8,3.3c-2.8-0.5-2.3,2.9-4.6,3.2c0.3,0.8,0.6,1.4,0.8,2c0.2,0.5,0.5,1.1,0.3,1.5
			c-0.7,1.7-0.4,3.3,0.2,5c0.2,0.6-0.1,1.3,0.7,1.7c1,0.5,2,1.2,3,1.3c0.7,0,1.4-1,2.1-1.5c-0.3-0.5-0.6-1-0.9-1.5
			c1.9,1.2,1.8,1.6,0,4.2c0.1,0.1,0.2,0.4,0.2,0.4c3.1,0.1,6.1,0.3,9.2,0.3c0.9,0,2-0.6,2.7-1.2c1-1,2.1-1.2,3.3-0.8
			c1.8,0.5,3.6,0.7,5.4-0.3c-0.5,0.8-1,1.6-1.8,2.8c2.9,0.4,5.4,2,8.2,0.5c0.9-0.4,1.6-0.3,2.2,0.6c1.1,1.7,2.9,1.4,4.6,1.5
			c0.3,0,0.8-0.4,1-0.7c1-1.1,1.3-4.2,0.6-5.5c-0.7-1.1-1.4-2.2-2.2-3.5c1.3-0.3,1.3,0.8,1.6,1.3c1.4,1.7,2.1,3.7,1.3,5.9
			c-0.2,0.5-0.1,1-0.2,1.5c-0.2,1.1,0.2,1.8,1.3,2.1c1.6,0.4,3.1,0.9,4.7,1.2c0.4,0.1,1.1-0.1,1.4-0.3c0.9-0.7,1.9-1.5,2.6-2.4
			c0.5-0.7,0.5-1.7,0.7-2.7c1.4,0.8,1.2,2.3,1.7,3.5c-0.8,0.5-2.5,0-2.3,1.7c2.5,1.2,3.9,0.7,4.7-1.7c0.8,0.5,0.6,2.5,2.2,1.8
			c1.4-0.7,0-1.6,0.2-2.7c0.8-0.3,1.7-0.7,2.6-1c0.1,0.1,0.2,0.2,0.3,0.4c-0.4,0.5-0.9,1-1.4,1.5c0.1,1.2,0.7,1.9,2,1.8
			c1.8,0,3.6,0.1,5.4-0.1c0.8-0.1,1.6-0.6,2.3-0.9c1-0.5,1.9-1.1,2.9-1.6c0.7,1.3,1.8,1.7,3.2,1.8c-0.8-1-1.7-2-3.2-1.8
			c0.4-0.6,0.8-1.1,1.1-1.7c0.9-1.5,1.4-3.1,0.1-4.7c-0.2-0.3-0.3-0.6-0.5-0.9c-0.6-1.4-0.3-1.9,1.3-2.3c0.3-0.1,0.6-0.1,1-0.2
			c0.1-3,0.6-5.8-0.8-8.7c0.7-0.1,1.2-0.3,1.6-0.2c0.3,0,0.4,0.5,0.7,0.7c2.9,1.9,4.2,4.7,4.8,7.9c1.1,0.4,2,0.7,3,1.1
			c-0.5,1-0.8,1.8-1.2,2.7c0.7,0.5,1.3,0.9,1.9,1.4c-1.1,0.6-2.2-1.3-2.9,0.2c0.3,1.7,0.6,3.2,0.9,4.9c5.1,2.1,10.7,0.8,16.2,1.1
			c1.8,0.1,3.1-0.7,3.9-2.6c0.7,1.4,1.3,2.8,3.2,2.8c1.3,0,1.2-1.1,1.9-2.3c0.3,1.8,1.2,2.4,2.6,2.4c6.2,0.1,12.4,0.3,18.6,0.5
			c0.8,0,1.6-0.1,2.7-0.2c-0.7-1.6-1.3-2.9-2.6-3.7c-1.1-0.7-2.2-1.3-3.3-1.9c0.1-0.1,0.2-0.3,0.3-0.4c2.1,1.1,4.2,2.3,6.4,3.5
			c0.3-1.8,0.1-3.7,2.5-4.1c-2.1-2.6-2.7-5.3-2.4-8.5c0.4-3.8,0.8-7.8-0.8-11.6c-0.6-1.5,0.2-2.8,1-4.1c1.6-2.5,4-4.4,6.3-6.2
			c1.5-1.2,3-2.3,4.5-3.4c0.9-0.7,1-1.4,0.6-2.5c-0.5-1.4-0.9-2.9-1.1-4.4c-0.1-0.6,0.4-1.5,0.9-1.9c0.7-0.6,1.7-0.4,2.3,0.4
			c0.6,0.9,1.3,1.8,1.6,2.8c0.8,2.6,1.4,5.2,2.1,7.8c0.6,2.1,0.6,2.3-0.4,3.8c-0.7-0.3-1.5-0.7-2.3-1c-1.8-0.7-2.2-0.6-3.5,0.8
			c-1.1,1.1-1.7,2.3-2,3.8c-0.3,1.2-0.6,2.5-1.1,3.7c-0.8,2-1.7,2.3-3.7,1.5c-0.2-0.1-0.5-0.1-0.7-0.1c-0.9,0.7-0.4,1.4-0.1,2.1
			c1.2,2.7,2.4,5.4,3.3,8.2c0.4,1.3,0.7,2.4,0.2,3.7c-0.2,0.5-0.2,1.2,0,1.7c0.6,1.5,0.5,3-0.2,4.3c1,0.8,2,1.5,3,2.2l0,0
			c1.6,1.1,3.2,2.2,4.9,3.2c1.8,1,2.2,0.9,3.3-0.8c1.8-2.5,2.7-5.3,2.5-8.4c-0.1-1.1,0.1-2.5,0.8-3.4c2.2-2.9,4.6-5.7,7.9-7.5
			c0.8-0.4,1.7-0.6,2.5-0.9c0.1,0.2,0.2,0.3,0.2,0.5c-0.3,0.3-0.5,0.7-0.8,0.8c-3.9,1.6-6.3,4.8-8.8,7.9c-0.5,0.6-0.8,1.6-0.7,2.4
			c0.2,3-0.5,5.7-2,8.3c-0.2,0.3-0.2,0.6-0.3,1c0,0.2,0,0.3,0.1,0.5c2.7,1.1,5.7,0.2,7.4-2.6c0.8-1.3,1.8-1.7,3-1.8
			c1.5,0,2.2-0.8,2.8-2.1c1.1-2.4,2.3-4.7,3.5-7.1c0.5-1,0.6-1.8,0.1-2.9c-1.9-4.3-2.7-8.7-2.1-13.4c0.2-2,0.5-4,0.8-6.1
			c-0.4-0.1-0.7-0.3-1-0.3c-2.1-0.1-2.8-1-1.9-2.8c0.4-0.9,1.3-1.9,2.2-2.3c2.1-1,4.3-2,6.8-1.9c0.9,0,1.8-0.3,2.8-0.4
			c0.4,0,0.9,0.1,1.7,0.1c-1.3,1.9-3.1,2.7-4.8,3.7c-0.6,0.3-1.2,0.6-1.9,0.9c-1.2,0.5-1.5,1.4-1.1,2.5c2,5.4,1.8,11.2,3.5,16.7
			c0.1,0.3,0.2,0.8,0.1,1c-1.5,1.6-0.6,3.6-0.9,5.4c-0.6,3.4-1.2,6.9-2,10.3c-0.6,2.8,0.2,4.1,3.1,3.7c1.4-0.2,2.7-0.7,4.6-1.3
			c-0.9-1-1.3-1.7-1.9-2.2c-0.7-0.6-1.4-1.2-2.1-1.8l0,0c1.3,0.9,2.7,1.6,3.9,2.7c0.8,0.7,1.5,1,2.7,0.2c-0.4-0.9-0.9-1.7-1.2-2.6
			c-0.7-1.7-1.2-3.5-0.3-5.2c0.5-1,1.5-1.8,2.4-2.5c1-0.7,1.2-1.5,0.7-2.6c-1.1-2.6-2.5-4.9-5.6-5.4c-0.3,0-0.5-0.3-0.9-0.6
			c0.3-0.3,0.5-0.6,0.6-0.6c2.2,0.7,4.4,1.3,6.4,2.2c0.7,0.3,1,1.5,1.4,2.3c0.3,0.7,0.4,1.5,0.5,2.2c0.2,1.4,1,2,2.4,2.3
			c4.7,1,6.4,4,5.1,8.6c-0.7,2.4-0.4,2.8,2.2,2.9c0.8,0,1.7,0,3,0c-0.9-1-2.4-1.4-1.1-2.7c0.2,0,0.6,0,0.8,0.2
			c1.4,0.8,2.6,0.3,3.3-0.9c1.3-2.4,3.3-2.8,5.8-2.8c0.9,0,1.7-0.7,2.7-1.1c0.4,0.6,0.8,1.5,1.5,2.2c1,1.1,1.8,0,2.9-0.7
			c-0.1,1.3-2.2,1.9-0.7,3.2c2.9-0.5,3.2-0.3,3.9,2.4c0.4,1.4,0.9,2.6,2.5,2.9c1.7,0.4,2.8-0.5,3.7-1.7c0.9-1.2,1.7-2.1,3.5-1.3
			c0.1,0.7,0.2,1.5,0.3,2.2c0.8,0.3,1.5,0.5,2.2,0.8c2.8,1.5,5.3,0.9,7.2-1.6c0.8-1.1,1.8-2,2.7-3.1c0.5-0.6,0.8-1.2,1.3-2.1
			c0.9,0.1,1.7-0.5,2.5-1.3c1.5-1.3,3.4-2.1,5.2-3.1c0,0.3,0,0.7,0,1c-1.6,0.8-3.4,1.3-4.6,2.4c-1,1-1.4,2.7-2,4.1
			c-0.6,0.1-1.6-0.1-1.9,0.3c-1.2,1.5-2.3,3.2-3.7,5.4c1.6-0.1,2.7-0.1,3.8-0.2c-0.2,1,0.7,1.2,1.7,1.5c2.3,0.8,4.5,1.6,6.7,2.3
			c0,37.3,0,74.6,0,112c-455.4,0-910.8,0-1366.3,0C0.5,729.5,0.5,690.4,0.5,651.4z M834.6,642.1c-0.2-0.3-0.4-0.7-0.6-1
			c-0.2,0.2-0.3,0.3-0.5,0.5c0.3,0.2,0.7,0.5,1,0.7c1.8,0.8,2.2,0.7,2.1-1C835.9,641.6,835.2,641.9,834.6,642.1z M667.1,646.1
			c-0.5-0.4-1.1-0.9-1.6-1.3c-0.2,0.1-0.3,0.2-0.5,0.3c0.1,0.5,0,1.2,0.2,1.4C665.9,647,666.7,647,667.1,646.1
			c1,0.9,1.9,0.5,3.1-0.2C669,645.3,668.1,646.1,667.1,646.1z M608,650.4c1.8-1.2,2.2-3.4,1.2-5.7c-0.7-1.1-1.4-2.3-2.1-3.4
			c0.9-0.6,1.7-1.1,2.6-1.7c-1.9-1.7-2.2-1.8-4.1-1.8c-0.1,0.9-0.2,1.9-0.3,2.8c0.8,0.3,1.3,0.5,1.8,0.8c-1.1-0.1-2.1-0.2-3.1-0.3
			c-2.3,3.7-2.3,3.7-1.3,4.8c2-0.9,3.9-2.6,6.2-1c-0.4,1.5-0.9,3-1.2,4.5C607.6,649.6,607.9,650,608,650.4c-0.5-0.1-1-0.3-1.6-0.5
			C607.1,651.2,607.1,651.2,608,650.4z M611.6,637.1c0.5-0.5,1-1.1,1.4-1.5c-1.2-1.8-1.3-1.9-2.4-2.5c-0.3,0.5-0.5,1-0.6,1.2
			c0.6,1,1.1,1.9,1.5,2.7c-1,0.1-1.9-1.1-3.2-0.1c1.4,1.6,3.2,1.3,4.8,1.6c-0.2,1.1-0.2,2,1.4,2.1c-0.7,0.8-1.1,1.4-1.8,2.2
			c0.5,0.5,1,0.9,1.5,1.3c-0.2,1.1,0,2,1.5,2.1c-0.5-0.7-1-1.4-1.5-2.1c0.6-1.2,1.5-1,2.3-0.4c0.6,0.4,1,1.2,1.2,1.8
			c0.5,1.4,1.2,2.6,2.6,3.4c1.2-0.9,2.3-1.7,3.5-2.6c0,0,0-0.2,0-0.5c-0.9-0.2-1.9-0.4-2.8-0.6c-1-0.2-1.8-0.7-1.5-1.7
			c0.5-1.6,0.2-4.1,3.1-4c0.2,0,0.4-0.5,0.6-0.7c-1.7-2.7-4.6-3.5-7-2c1.3,3.4,1.3,3.5-0.1,5.2c-1.3-1.4,0.1-3.7-1.7-5.2
			c-0.5,0.6-0.9,1.1-1.3,1.6C613.3,637.5,612,637.7,611.6,637.1z M659.6,652c0.3-0.3,0.6-0.6,0.9-0.9c1.2-1.2,1.1-1.9-0.2-2.7
			c-0.3-0.2-0.8-0.3-1.3-0.5c-0.1,1-0.8,1.9,0.3,2.8C659.6,650.9,659.6,651.6,659.6,652c-1-0.2-1.8-1.4-3.1-0.8
			C657.8,653,658.3,653.1,659.6,652z M1280.4,647.9c0.3,0.5,0.5,1.1,1,1.4c0.5,0.3,1.3,0.3,1.8,0.1c0.3-0.1,0.5-1.1,0.3-1.5
			c-0.2-0.6-0.8-1.5-1.3-1.6C1281.2,646.1,1280.6,646.9,1280.4,647.9c-0.5,0-0.9-0.1-1.4-0.1c0.1,0.4,0.1,0.9,0.4,1
			C1280.1,649.2,1280.2,648.4,1280.4,647.9z M885.6,643.3c0.1,0.5,0.3,1.1,0.4,1.6c0.1,0,0.3,0,0.4,0c0.1-0.6,0.2-1.2,0.4-1.8
			c-0.3,0-0.7-0.1-1-0.1c-3.5-1.8-5.2-2.3-6.8-2.1c1.3,1.1,3.8,1.3,2.7,4.3c1.2-0.5,1.9-0.8,2.6-1.1
			C884.6,643.8,885.1,643.5,885.6,643.3z M878,643.7c0.8,1,0.8,1,2.3,0.6C879.4,644.1,878.6,643.9,878,643.7
			c0.2-0.4,0.5-0.9,0.7-1.3c-1.6,1.1-3,1-4.7,0.5c-1.7-0.5-2.5,0.6-2.2,3c0.7-0.1,1.4-0.3,2.1-0.4c0.5-0.1,1.2-0.5,1.6-0.4
			C876.9,645.5,877.3,644.4,878,643.7z M673.9,639.7c-0.1-0.2-0.1-0.5-0.2-0.7c-0.1-0.2-0.4-0.3-0.6-0.3c-0.1,0-0.3,0.2-0.3,0.2
			c0.1,0.3,0.2,0.5,0.5,0.7C673.4,639.7,673.7,639.6,673.9,639.7c-1,0.9-2,1-3.1,0c1.2-0.4,1-1.3,0.5-2.3c-0.2,0.8-0.3,1.5-0.5,2.3
			c-0.6-0.4-1.1-0.7-1.7-1.1c-0.1,0.1-0.3,0.2-0.4,0.3c1.7,1.3,1.5,2.9,0.9,4.5c2.6,0.8,3.2,0.6,3.9-1.5c0.2-0.5,0.7-0.7,1-1.2
			c0.2-0.3,0.2-0.7,0.3-1C674.6,639.7,674.2,639.7,673.9,639.7z M519.4,660.1c0.3,0.2,0.7,0.4,1,0.6c0-0.1,0.1-0.2,0.1-0.3
			C520.2,660.3,519.8,660.3,519.4,660.1c-1.7-1.1-3.6-1.1-5.4-1.1c-0.6,0-1.2,0.4-1.7,0.8c-0.6,0.5-1.2,1.1-1.9,1.8
			c1.9,0.8,3.7,0.1,5.4-0.5C517,660.8,518.2,660.5,519.4,660.1z M717.4,645.3c-1.3-0.3-2.6-0.5-3.9-0.9c-1.2-0.4-2.4-0.6-3.7-0.1
			c0.6,1,1.1,1.8,1.6,2.7c-2.1,0-2.9-2.6-5.1-2c-0.3,1-0.7,2.1-1,3.1c-0.3,1.3,0,1.8,1.2,2c1.3,0.2,1.8-0.1,2.1-1.5
			c0.1-0.4,0.1-0.7,0.2-1.1c0.1,0,0.3,0,0.4,0c0.1,0.7,0.2,1.4,0.4,2.1c0.8,0.3,1.5,0.5,1.7-0.5c0.3-1.3,1.3-1.5,2.4-1.5
			c0.5,0,1,0,1.2,0.1C715.8,646.9,716.6,646.1,717.4,645.3c0.6,0.1,1.2,0.3,2.1,0.5c-0.1-1-0.1-1.8-0.2-2.6
			C717.8,643.5,717.9,644.6,717.4,645.3z M626.4,648.4c-0.7-0.4-1.5-0.9-1.9-0.4c0.1,1,0.3,2,0.1,2.2c-1.3,1-0.5,1.9-0.1,2.8
			c2.5,0.2,4.9,0.6,7.2,0.7c2.5,0.1,4.9,0,7.4,0c0.8,0,1.5,0,2.3-0.1c1.7-0.3,2.2-1.2,2-3.1c-1.1-0.2-2.2-0.4-3.3-0.5
			c0-0.2,0-0.4,0-0.6c0.9-0.2,1.9-0.4,2.8-0.5c0.8-0.1,1.9,0.3,2.5-0.1c2.3-1.5,5.7-1,7.4-3.9c0.2-0.3,0.9-0.4,1.4-0.6
			c-0.1,0.7-0.2,1.4-0.4,2.2c3.5-0.3,4.3-1.1,3.7-3.8c-1,0.8-1.8,2-3.4,1.6c-0.2-0.2-0.6-0.6-0.7-0.6c-0.9,0.4-1.9,0.8-2.8,1.2
			c-3.4,1.8-6.9,2.5-10.6,1.1c-0.8,0.8,0.2,2.4-1.3,2.8c0.1-0.7,0.2-1.4,0.2-1.9c-1-0.4-1.9-0.8-2.8-1.2c-0.6,0.8-1,1.6-0.1,2.2
			c0.8,0.5,1.8,0.6,2.7,0.9c-1,0.6-2,0.7-3.1,0.1c-1.9-1-3.8-1-5.9-0.6C628.7,648.5,627.5,648.3,626.4,648.4
			c0.2-0.1,0.5-0.1,0.6-0.2c0.2-0.1,0.3-0.4,0.3-0.6c0-0.1-0.3-0.4-0.5-0.4c-0.2,0-0.4,0.2-0.5,0.4
			C626.3,647.9,626.4,648.1,626.4,648.4z M396.6,653.7c0.8,0.1,1.5,0.2,2.2,0.3c2,0,4.1,0,6.1,0c1.7,0,3.4-0.2,4.8-1.4
			c0.4-0.3,1.4-0.4,1.8-0.1c2.2,1.8,4.4,0.7,7,0.2c-1-0.9-1.6-1.5-2.2-2.1c-2.7-2.7-5.9-3.5-9.5-2.7c-0.9,0.2-1.8,0.5-2.7,0.5
			c-1-0.1-2.1-0.3-2.8,0.6c-0.6,0.8-1.1,1.7-1.7,2.7C397.3,651.8,397.3,651.8,396.6,653.7z M1077.2,644.3c-1.9-1.2-3.5-2.3-5.2-3.2
			c-1-0.5-2.3-1.1-3.4-0.8c-2,0.5-3.9,1.4-5.8,2.3c-0.4,0.2-0.7,1.1-0.6,1.7c0.2,1.4,0.6,2.8,1,4.6c1.5,0.1,3.4,0.4,5.2,0.5
			c0.4,0,1.2-0.3,1.3-0.6c0.4-2,2-2,3.5-2.2c0.1,0,0.3-0.2,0.4-0.3c0.2-0.6,0.4-1.3,0.7-2.3c0.4,1,0.7,1.6,1.1,2.6
			C1076,645.7,1076.5,645.1,1077.2,644.3z M699.3,643.9c-0.1-1.4-0.1-2.5-0.3-3.5c-0.2-0.9-0.1-1.7,0.7-1.9c0.6-0.2,1.4,0.1,2.1,0.4
			c0.6,0.3,1,1.3,2,0.6c-0.1-1.1-0.2-2.2-0.3-2.9c-4.1-0.8-7.7,0.6-11.4,1.9c-0.2,1.6,1.2,1.9,2.1,2.6c0.6,0.5,1.5,0.6,1.9,1.2
			c0.4,0.5,0.3,1.4,0.4,2.2C697.6,644.3,698.4,644.1,699.3,643.9z M415.6,644.4c0.2,0.1,0.3,0.2,0.5,0.3c0.3-0.4,0.5-0.9,0.8-1.2
			c1.3-1,4.3-0.6,5.3,0.7c1.3,1.5,1.3,1.5,3.3,0.6c0.3,0.6,0.6,1.3,1,2c1-0.8,0.9-1.6,0.2-2.3c-1.3-1.2-2.7-2.3-4-3.5
			c-1.9-1.6-3.9-0.4-5.8-0.4c-0.7,1.5-2.3,1.5-3.6,1.9c0.4,0.3,0.7,0.3,1.1,0.4c0.4,0,0.7,0.1,1.2,0.1
			C415.6,643.6,415.6,644,415.6,644.4z M332.2,647.3c-0.3,1.1-0.5,1.8-0.6,2.6c-0.1,1.8,0.9,3.9,1.9,4.2c1.1,0.3,3.3-1,4.1-2.5
			c0.1-0.2,0.2-0.5,0.3-0.7c0.5-1.1,1-2.3,1.7-3.6c-1.1,0.5-2.1,0.8-3,1.4c-0.9,0.6-1.7,0.6-2.5,0
			C333.5,648.2,333.1,647.9,332.2,647.3z M450.2,646.5c1.3-2.1,1.3-2.7,0.3-4c-1.6-2.1-3.1-4.3-4.7-6.5c-2.3,0.9,0.1,3.4-1.9,4.4
			c1.8,1.3,3.1,2.6,4,4.4C448.3,645.4,449.3,645.8,450.2,646.5z M647.4,653.6c1.7,0.3,3,0.1,4.1-1.2c0.5-0.6,1.3-1,2-1.5
			c1.5-1,2.7-2.1,3.2-4.6c-2,1.2-3.5,2.2-5.1,3.1c-0.5-0.4-1-0.7-1.3-0.9C647.5,649.2,647.8,651.4,647.4,653.6z M690.2,654.3
			c1.4,0.8,2.7,0.7,4,0.1c-0.3-3.3-0.9-3.4,2.7-4.8c-0.5-2.4-0.7-2.6-3.4-2.8c0.1,0.4,0.2,0.9,0.4,1.2c0.6,1-0.3,1.8-0.8,1.8
			c-2.2-0.2-2.5,1-2.3,2.8C690.9,653.1,690.5,653.7,690.2,654.3z M1329.8,647.6c-1.5-1.5-2.9-2.9-4.3-4.3c-1.5,0.5-2.9,0.9-4.7,1.4
			c-0.1,0.4-0.2,1.1-0.4,1.9C1323.8,646.9,1326.6,649.4,1329.8,647.6z M916.3,644.9c3.3,1.1,6.4,0.5,8.1-1.5c-0.9-2.3-3.2-2-5.1-2.6
			C918.2,642.2,917.2,643.5,916.3,644.9z M386.6,649.1c-0.1,0.1-0.3,0.3-0.5,0.5c-0.2,0.4-0.4,0.7-0.6,1.1c-0.8,2-0.1,2.9,2,2.8
			c0.9-0.1,1.9-0.1,2.8-0.3c0.5-0.1,0.9-0.4,1.5-0.7c-0.8-1.2-1.4-2.2-1.9-3C388.8,649.4,387.7,649.2,386.6,649.1z M339.7,653.3
			c0.3,0.1,0.7,0.3,1,0.2c2.1-0.4,4.1-0.8,6.2-1.3c0.2-0.1,0.6-0.2,0.7-0.3c0.3-0.6,0.7-1.4,0.6-2c0-0.3-1-0.7-1.6-0.7
			c-1.2,0-2.3,0.2-2.9,0.3C342.1,650.9,340.9,652,339.7,653.3z M1194.7,630.4c0.1,2.5,0.2,4.7,0.4,6.8c0,0.3,0.8,0.6,1.3,0.9
			c-0.4,0.5-0.8,1.1-1.2,1.7c1.8,0.7,2.5,0.5,2.8-0.8c0.2-1,0.4-2.1,0.2-3C1197.8,633.9,1197.8,631.4,1194.7,630.4z M682.3,640.5
			c2.2,0.4,3.9,0.7,5.6,1.1c1.4,0.3,2.1-0.3,2.5-1.3c-0.9-2.6-3.2-2.5-5.3-3.2C684.2,638.2,683.3,639.3,682.3,640.5z M682.3,644
			c-1.1,0.8-2.5,1.7-4,2.8c0.1,0.4,0.2,1,0.4,1.5c1,0.1,2,0.2,2.8,0.3c0.1-0.6,0.3-1.2,0.6-2.3c0.4,1.1,0.6,1.7,1,2.5
			c1-0.7,1.7-1.3,3-2.2C684.5,645.5,683.3,644.7,682.3,644z M729.1,649.7c0,1.6,0.7,2.3,1.9,2.6c1,0.3,1.9,0.9,2.9,1.4
			c0.1-0.1,0.1-0.3,0.2-0.4c-0.9-0.7-1.7-1.5-2.7-2.3c0.6-0.6,0.9-1.1,1.3-1.5c2.7,0.3,2.7,0.3,3.2-1.8
			C732.9,645.6,731.6,649.5,729.1,649.7z M680.9,653.2c1.8-0.5,3.6-1.1,5.8-1.7c-0.6-0.9-0.9-2-1.5-2.1c-2.2-0.6-4.2,0.2-6.3,1
			C679.7,651.6,680.3,652.5,680.9,653.2z M220,641.2c-0.9,1.1-1.5,2-2.2,2.8c0.9,1.5,2.2,0.2,3.1,0.4c1.2,0.3,2.2,1,3.5,0.4
			C224.1,641.9,221.8,641.9,220,641.2z M347.3,645.4c-1.9,0.6-3.9-0.7-5.5,1c1.6,1.8,3.1,2.1,5,1.4
			C347.9,647.3,347.7,646.6,347.3,645.4z M499,650.5c0-0.1-0.1-0.2-0.1-0.3c-1,0.3-2.1,0.6-3.1,0.9c-1,0.2-2.2-0.2-2.9,1.2
			c1.1,0.3,2.1,0.6,2.9,0.8C496.9,652.2,497.9,651.4,499,650.5z M945.3,639.3c0.1,1.1,0.1,2,0.2,2.8c3.3,0.9,4.2,0.9,5.6,0.4
			c-1.7-0.7-3.8-0.9-3.4-3.4C946.7,639.2,946.2,639.2,945.3,639.3z M720.8,643.2c-0.1,1.2-0.1,2.2-0.2,3.2c2.7,0.9,3.2,0.4,2.8-2.7
			C722.6,643.5,721.9,643.4,720.8,643.2z M1259.9,649.2c1.2,0.4,2.4,0.6,3.7-0.1c-1.2-1.7-2.1-2.2-3-1.8
			C1259.8,647.6,1259.5,648.2,1259.9,649.2z M947.8,644.5c-1.4-0.5-2.7-1-4.3-1.6c-0.1,0.6-0.3,1.2-0.4,2
			C944.7,645.2,946.2,645.5,947.8,644.5z M1253.2,644.1c1.6,1.7,1.6,1.7,4.7,0.4C1254.1,643.1,1254.1,643.1,1253.2,644.1z
			 M668.9,635.4c1.1,0.3,2.1,0.5,3.1,0.8c0.2-0.8,0.4-1.3,0.6-1.9C669.7,633.1,669.7,633.1,668.9,635.4z M444.4,643.3
			c-0.2-0.6-0.3-1-0.5-1.4c-0.1-0.3-0.3-0.7-0.5-0.8c-0.5-0.2-1.2-0.5-1.5-0.4c-0.4,0.2-0.6,1-0.6,1.5
			C441.4,643.4,442,643.6,444.4,643.3z M711.7,639.6c-0.4,3-0.3,3.1,1.9,2.9c0-0.9,0-1.7,0-2.7C713,639.7,712.4,639.6,711.7,639.6z
			 M578.8,648.3c-1.2,0.2-2.1,0.3-3.2,0.5c-0.1,0.6-0.1,1.1-0.1,1.5c1.1,0.3,2,0.6,3,0.8C578.6,650.3,578.7,649.4,578.8,648.3z
			 M660.5,644.1c-0.2,0.7-0.4,1.2-0.6,1.7c0.1,0.3,0.1,0.6,0.2,0.9c0.8-2.5,1.7-0.4,2.6-0.7c-0.3-1.1-0.6-2.1-0.9-3.3
			c-0.9,0-1.7,0.1-2.6,0.1c0,0.2,0,0.3-0.1,0.5C659.6,643.5,660,643.8,660.5,644.1z M809.4,634.7c0,1-0.1,1.7,0.1,2.4
			c0.1,0.3,0.8,0.7,1.1,0.7c0.3,0,0.9-0.5,0.9-0.9c0.1-0.7-0.1-1.4-0.2-2.2C810.6,634.7,810.1,634.7,809.4,634.7z M523.5,647
			c0,1.3,0.2,2,1.4,1.8c1.3-0.2,1.8-1,1.6-2.4C525.4,646.6,524.6,646.8,523.5,647z M635.3,640.7c-0.1-0.2-0.1-0.9-0.2-0.9
			c-1.4-0.1-2.8-0.2-4.2-0.1c-0.2,0-0.5,0.5-0.4,0.7c0,0.2,0.3,0.6,0.5,0.7c0.5,0.1,1,0.2,1.5,0.1
			C633.4,641.1,634.3,640.9,635.3,640.7z M419.5,650.3c0.2,0,0.5,0,0.7,0c0.1-1.1,0.1-2.3,0.2-3.4
			C419.4,647.9,418.8,649,419.5,650.3z M321.6,645.3c-1.2,0-2.1-0.1-2.2,1.2c0,0.2,0.4,0.8,0.7,0.8
			C321.3,647.3,321.7,646.7,321.6,645.3z M691.6,640.9c-0.9,1.2-2.3,1.6-2,3.7c1.2-0.6,2.2-1.1,3.3-1.7
			C692.4,642.2,692.1,641.7,691.6,640.9z M951.8,642.7c-0.2,0.8-0.3,1.6-0.5,2.4c1,0.1,2,0.6,2.3-0.8
			C953.8,643.1,953.2,642.6,951.8,642.7z M499.9,654.6c1.6,0,2.2-0.6,2.1-2.2C500.7,652.6,500,653,499.9,654.6z M689.1,646
			c-1.2-0.9-2.1-1.5-3.2-2.3C686.4,646.9,686.7,647,689.1,646z M381.6,650.9c-0.2-0.2-0.4-0.5-0.7-0.7c-1,0.3-1.4,1.2-1.6,2.9
			C380.3,652.1,381,651.5,381.6,650.9z M675.1,653.7c-0.3-1.3,0.3-2.4-1.4-3.3C673.5,651.8,673.2,652.8,675.1,653.7z M690.2,648.3
			c-0.9-1-1.7-0.7-2.4,0c-0.2,0.2,0,0.7,0,1.1c0.7-0.1,1.3-0.3,2-0.5C689.9,648.9,689.9,648.7,690.2,648.3z M613.3,652.6
			c-1.4-0.7-2.3-0.3-3.6,0.6C611.2,653.3,612.2,653.5,613.3,652.6z M988.2,643.3c-0.4,0.8-1,1.4-0.8,1.7c0.4,1,1.3,1.2,2.5,0.6
			C989.3,644.8,988.9,644.2,988.2,643.3z M408,640.6c-1.4,2.5-1.4,2.7,0,4C408,643.4,408,642.2,408,640.6z M412.1,644.5
			c0-0.7,0-1.2,0-1.8c-0.7,0-1.3,0-2,0c0,0.7,0,1.2,0,1.8C410.7,644.5,411.3,644.5,412.1,644.5z M445.4,646.3
			c0.8,0.4,1.5,0.4,1.7-0.6c0-0.2-0.5-0.8-0.8-0.8C445.4,644.8,445.2,645.5,445.4,646.3z M633.9,648c1-1,1-1.8,0.5-3.1
			c-0.6,0.5-1.1,0.8-1.4,1.1C633.3,646.7,633.5,647.2,633.9,648z M441.9,645.6c0.4,0.8,1,1.2,1.8,0.6c0.2-0.1,0.2-0.9,0-1.1
			C443.1,644.6,442.4,644.9,441.9,645.6z M1116.6,642.9c1.3,0.9,2.1,1.4,3.7,0.4C1119.1,642.6,1118.3,642.1,1116.6,642.9z
			 M901.8,644.6c-0.5-0.2-0.8-0.4-1-0.4c-0.1,0-0.5,0.4-0.4,0.5c0.1,0.2,0.3,0.6,0.6,0.6C901.2,645.2,901.4,644.9,901.8,644.6z
			 M869,643c-0.5,1.3-0.5,2.2,0.6,2.8C870.1,644.4,870.1,644.4,869,643z M538.5,649.5c-0.4-1.2-0.4-1.2-2.3-0.8
			C537.1,649,537.8,649.3,538.5,649.5z M616.8,647.9c-1.9,0.2-1.9,0.2-2.5,2.1C615.3,649.3,616.1,648.6,616.8,647.9z M709.5,642.1
			c0.3-0.9,0.7-1.9-0.4-3.1C708.6,640.4,708.4,641.3,709.5,642.1z M303.5,645.5c-0.2,0-0.4,0-0.6,0c0.1,0.4,0.1,0.9,0.2,1.3
			c0,0,0.3,0,0.4,0C303.5,646.4,303.5,645.9,303.5,645.5z M417.8,647.8c-0.2-0.3-0.4-0.5-0.5-0.7c-0.2,0.2-0.5,0.3-0.6,0.6
			c-0.1,0.1,0.2,0.6,0.3,0.5C417.2,648.1,417.4,648,417.8,647.8z M706.1,637.4c0.3,1,0.5,1.6,0.8,2.5
			C707.6,638.6,708.2,637.8,706.1,637.4z M840.2,641c-1.8,0.3-1.9,0.4-1.1,2.4C839.6,642.5,839.9,641.8,840.2,641z M528.7,646.5
			c0.3,1.7,0.3,1.7,1.9,1.3C529.9,647.3,529.4,647,528.7,646.5z M502.1,656.1c1.1,0.3,1.7,0.2,1.2-1.1
			C502.8,655.5,502.5,655.8,502.1,656.1z M629.8,640.3c-1.5-1.3-1.5-1.3-3.3-0.4C627.8,640.1,628.6,640.2,629.8,640.3z M728.6,636.7
			c0.1,1.1,0.2,2,0.4,3C730.2,638.8,730.2,638.8,728.6,636.7z M827.4,645.1c0-0.1-0.1-0.2-0.1-0.4c-0.6,0.2-1.1,0.4-1.7,0.6
			c0,0.1,0.1,0.3,0.1,0.4C826.3,645.5,826.8,645.3,827.4,645.1z M700.7,648.2c1.5,0.5,1.5,0.5,2.6-0.7
			C702.2,647.9,701.4,648,700.7,648.2z M393.7,650.8c-0.1,0.2-0.2,0.3-0.3,0.5c0.3,0.2,0.6,0.4,0.9,0.6c0.1-0.2,0.2-0.4,0.3-0.5
			C394.3,651.2,394,651,393.7,650.8z M424.7,651.8c0-0.2,0-0.4-0.1-0.6c-0.4,0.1-0.9,0.2-1.3,0.2c0,0.2,0.1,0.3,0.1,0.5
			C423.9,651.9,424.3,651.8,424.7,651.8z M653.1,652.6c1.2,0.4,2,0.6,2.7,0.8C655.3,652.5,654.8,651.5,653.1,652.6z M812.5,637.3
			c0,0.2,0,0.4-0.1,0.5c1.3,0.6,1.3,0.6,2.7-0.1C814,637.6,813.3,637.5,812.5,637.3z M729.9,654.7c0,0.2,0,0.4-0.1,0.6
			c0.5,0,0.9,0,1.4,0c0-0.1,0-0.3,0-0.4C730.9,654.8,730.4,654.8,729.9,654.7z M298.9,641.2c-0.5,0.1-1.1,0.1-2,0.3
			C297.9,642.4,298.5,642.6,298.9,641.2z M1090.2,647c0.1-0.3,0.2-0.5,0.3-0.8c-0.6-0.2-1.1-0.3-1.7-0.4c-0.1,0-0.3,0.3-0.5,0.6
			C1089,646.6,1089.6,646.8,1090.2,647z M604.5,652.7c0.4-1,0.7-1.6,1.1-2.6C604.3,650.8,604.1,651.4,604.5,652.7z M299.8,645.3
			c-0.2,0.4-0.3,0.7-0.4,0.9c0.2,0.1,0.5,0.2,0.6,0.1c0.2-0.1,0.4-0.3,0.4-0.5C300.3,645.7,300.1,645.6,299.8,645.3z M974.9,645.4
			c0.8-1,0.8-1,0-2.3C974.9,644.2,974.9,644.8,974.9,645.4z M294.7,642.2c-0.1,0.3-0.1,0.6-0.2,0.8c0.6,0.1,1.1,0.2,1.7,0.3
			c0-0.2,0.1-0.4,0.1-0.6C295.8,642.5,295.3,642.4,294.7,642.2z M673,647.2c-0.3-0.3-0.6-0.5-0.9-0.7c-0.1,0.2-0.5,0.6-0.4,0.7
			c0.2,0.3,0.5,0.5,0.8,0.7C672.6,647.7,672.7,647.5,673,647.2z M885,640.9c0-0.2,0.1-0.4,0.1-0.6c-0.2-0.1-0.4-0.3-0.6-0.4
			c-0.3-0.1-0.6,0-0.9,0c0,0.2-0.1,0.3-0.1,0.5C884.1,640.5,884.5,640.7,885,640.9z M666,650.4c0,0.2,0,0.4,0.1,0.6
			c0.6-0.1,1.2-0.1,1.8-0.2c0-0.2,0-0.4-0.1-0.6C667.1,650.3,666.6,650.4,666,650.4z M712.6,649.8c0,0.2-0.1,0.4-0.1,0.5
			c0.6,0.1,1.2,0.2,1.8,0.3c0-0.2,0.1-0.4,0.1-0.7C713.8,650,713.2,649.9,712.6,649.8z M703.7,645.9c-0.2-0.3-0.4-0.5-0.5-0.7
			c-0.2,0.2-0.5,0.4-0.6,0.6c0,0.1,0.2,0.4,0.3,0.6C703.2,646.2,703.4,646,703.7,645.9z M729,645.1c-0.4-0.4-0.6-0.6-0.9-0.8
			c-0.2,0.2-0.4,0.4-0.5,0.7c0,0.1,0.3,0.5,0.4,0.5C728.3,645.4,728.6,645.2,729,645.1z M326.9,649.5c0,0.1,0.1,0.2,0.1,0.3
			c0.3-0.1,0.5-0.2,0.8-0.3c0-0.1-0.1-0.2-0.1-0.3C327.4,649.2,327.1,649.4,326.9,649.5z M442.5,650.8c0.2-0.1,0.4-0.2,0.5-0.2
			c-0.1-0.2-0.2-0.4-0.4-0.5c-0.1,0-0.3,0.1-0.4,0.2C442.3,650.4,442.4,650.6,442.5,650.8z M708.6,654.3c-0.2-0.1-0.4-0.2-0.6-0.4
			c-0.2,0.4-0.3,0.8-0.5,1.3c0.1,0.1,0.2,0.1,0.4,0.2C708.1,655,708.4,654.6,708.6,654.3z M276.7,647.2c0,0.1-0.1,0.3-0.1,0.4
			c0,0,0.2,0.1,0.2,0.1c0.1-0.1,0.2-0.2,0.3-0.3C276.9,647.4,276.8,647.3,276.7,647.2z M664.3,650.4c-0.1,0.1-0.3,0.2-0.4,0.4
			c0.1,0.1,0.2,0.3,0.3,0.3c0.2,0,0.3-0.2,0.5-0.3C664.6,650.7,664.5,650.6,664.3,650.4z M637.2,644.1c0.2,0,0.4-0.1,0.5-0.1
			c-0.1-0.4-0.2-0.7-0.3-1.1c-0.1,0-0.1,0-0.2,0.1C637.2,643.4,637.2,643.8,637.2,644.1z M829.6,643.7c0.1-0.1,0.1-0.2,0.2-0.4
			c-0.1,0-0.2-0.1-0.2-0.1c-0.1,0.1-0.2,0.2-0.2,0.3C829.5,643.6,829.6,643.7,829.6,643.7z M487,652.6c0-0.1,0.1-0.3,0.1-0.4
			c-0.1,0-0.2,0-0.3-0.1c0,0.1,0,0.3,0,0.4C486.8,652.6,486.9,652.6,487,652.6z M376.7,649.4c0.1,0.1,0.2,0.2,0.3,0.2
			c0,0,0.2-0.1,0.2-0.1c0-0.1-0.1-0.2-0.2-0.3C376.9,649.2,376.8,649.3,376.7,649.4z M624.9,645.6c0.1,0.1,0.3,0.2,0.4,0.3
			c0.3-0.4,0.6-0.8,0.9-1.1c-0.1-0.1-0.3-0.2-0.4-0.3C625.4,644.8,625.2,645.2,624.9,645.6z M454,646.7c0.2-0.1,0.3-0.2,0.5-0.2
			c-0.2-0.4-0.5-0.9-0.7-1.3c-0.1,0.1-0.2,0.1-0.4,0.2C453.7,645.8,453.9,646.3,454,646.7z M1016.6,646.2c0.1-0.2,0.2-0.4,0.2-0.6
			c-0.4-0.1-0.9-0.3-1.3-0.4c-0.1,0.2-0.1,0.3-0.2,0.5C1015.8,645.9,1016.2,646.1,1016.6,646.2z M147.6,647.4
			c0.1-0.1,0.2-0.2,0.3-0.3c-0.2-0.2-0.5-0.5-0.7-0.7c-0.1,0.1-0.2,0.2-0.3,0.2C147.1,646.9,147.4,647.2,147.6,647.4z M721.5,647.1
			c-0.2,0.2-0.3,0.4-0.4,0.6c0,0,0.2,0.3,0.3,0.3c0.2-0.1,0.4-0.2,0.6-0.3C721.8,647.5,721.7,647.4,721.5,647.1z M943.7,641.7
			c0,0.1,0,0.2-0.1,0.3c0.2,0.1,0.4,0.2,0.7,0.2c0.2,0,0.4-0.1,0.6-0.2c0-0.1-0.1-0.2-0.1-0.3C944.4,641.7,944.1,641.7,943.7,641.7z
			 M839.4,645.4c-0.1-0.1-0.2-0.2-0.3-0.2c0,0-0.2,0.1-0.2,0.1c0,0.1,0.1,0.2,0.2,0.3C839.2,645.6,839.3,645.5,839.4,645.4z
			 M711.3,652.4c0.2,0.1,0.3,0.2,0.5,0.3c0.2-0.3,0.4-0.5,0.5-0.8c0-0.1-0.3-0.3-0.4-0.4C711.7,651.8,711.5,652.1,711.3,652.4z
			 M697.4,652.3c-0.1-0.1-0.2-0.2-0.3-0.3c-0.1,0.1-0.3,0.3-0.2,0.3c0.1,0.2,0.3,0.3,0.4,0.5C697.3,652.6,697.3,652.4,697.4,652.3z
			 M725.1,641.8c0,0.1,0.1,0.3,0.1,0.4c0.4-0.1,0.8-0.2,1.2-0.3c-0.1-0.2-0.2-0.4-0.2-0.7C725.8,641.4,725.5,641.6,725.1,641.8z
			 M373.9,653c-0.1-0.1-0.1-0.2-0.2-0.3c0,0-0.2,0-0.2,0.1c0,0.1,0,0.3,0,0.4C373.7,653,373.8,653,373.9,653z M299.8,642.3
			c0.2,0.2,0.4,0.4,0.6,0.4c0.2-0.1,0.4-0.3,0.4-0.5c0-0.2-0.3-0.3-0.4-0.5C300.2,641.9,300.1,642.1,299.8,642.3z M842.5,642
			c-0.1,0.2-0.1,0.4-0.2,0.6c0.4,0.2,0.8,0.3,1.2,0.5c0.1-0.2,0.2-0.3,0.2-0.5C843.3,642.4,842.9,642.2,842.5,642z"/>
		<path fill="#1a1a1a" d="M752.7,633.5c-1.6-1.3-3.2-2.5-4.8-3.8c-0.4-0.4-0.6-1-0.9-1.4c1.5,0.8,1.6,0.7,1.5-1c0.5,0.3,1.1,0.5,1.6,0.8
			c0.1-0.1,0.2-0.3,0.2-0.4c-0.6-0.4-1.1-0.9-1.9-1.5c0.1,0.7,0.1,1,0.1,1.2c-0.5,0.2-1.1,0.5-1.6,0.7c0.1-1.2,0.6-1.9,1.8-2.1
			c0.5-0.1,1-0.4,1.4-1c-0.4,0-0.7,0-1.1,0c-1.7-0.1-3.5-1.9-3.5-3.6c0-1.1,0.9-1.7,1.9-1.2c0.4,0.2,0.6,0.6,1,0.8
			c0.3,0.2,0.6,0.3,1,0.5c0.7-0.5,1.3-1,2-1.5c0.1,0.1,0.2,0.1,0.3,0.2c-0.5,0.6-1,1.3-1.6,2.1c0.4,0.5,0.8,1,1.2,1.5l0-0.1
			c0.1,1.4,1.2,2.2,2.1,3.1l0-0.1c-0.6,0.8-1.3,1.5-1.9,2.3c0.5,0.4,1,0.9,1.5,1.4c0.7-0.6,1.4-1.1,2-1.6l-0.1,0
			c0.3,0.8,0.3,1.5-0.4,2.3C753.6,631.8,753.2,632.7,752.7,633.5L752.7,633.5z"/>
		<path fill="#1a1a1a" d="M541,648.9c0.1-1.8,0-3.6,1-5.1c0.2-0.3,0.2-0.7,0.2-1c-0.2-1.3-0.4-2.5-0.5-3.7c-0.2-1.1-0.3-2.3-0.4-3.8
			c0.8-0.3,1.8-0.7,2.8-1.1c0.2,0.1,0.3,0.2,0.5,0.3c-2.1,1.1-1.8,2.7-1.3,4.3c0.7,2.5,0.3,4.9-0.2,7.3
			C542.6,647.3,542.3,648.4,541,648.9C541,648.9,541,648.9,541,648.9z"/>
		<path fill="#1a1a1a" d="M672.7,612.3c0.3,1.1,0.7,2.2,1.1,3.6c-3-0.3-2.3,3-4.2,3.8c0.3,1.9,1.5,3.5,0.6,5.3c-0.2,0-0.4,0-0.5-0.1
			c-1.7-1.8-0.6-4.2-1.1-6.3c-0.2-0.7,1-1.9,1.9-2.5c1.3-0.9,1.7-2.1,1.4-3.8C672.1,612.3,672.4,612.3,672.7,612.3z"/>
		<path fill="#1a1a1a" d="M808,633.6c0.1,0.2,0.3,0.3,0.4,0.5c-0.6,0.2-1.3,0.4-2.1,0.7c0,0.8,0,1.6,0.2,2.4c0.3,1,0.5,1.8-0.5,2.5
			c-1,0.6-2,1.4-3.3,0.5c1.8-2.2,3.3-4.4,2.5-7.6c-1.2,0.2-2.3,0.3-3.7,0.5c0.4-1.4,1.2-2,2.5-1.9c1.4,0.1,2.4,1.2,2.8,2.8
			C807.2,633.8,807.6,633.7,808,633.6z"/>
		<path fill="#1a1a1a" d="M679.1,628.2c-1-1.6-0.7-2.7-0.1-3.8c0.5-1,0.7-2,0.3-3.2c-0.3-0.8-0.2-1.7-0.2-2.5c-0.1-1.1-0.2-2.3-0.3-3.8
			c0.4-0.2,1.1-0.5,1.9-0.8c-1.1,2-0.1,3.8,0.2,5.5C681.2,622.5,680.7,625.2,679.1,628.2z"/>
		<path fill="#1a1a1a" d="M867.7,640.5c-1.4-1.1-1.8-2.1-1.8-3.4c0.1-1.3-0.4-2.4-1.2-3.5c-1.1-1.5-1.9-3.1-3-5.1c0.4-0.4,0.9-1,1.5-1.6
			c0.2,0,0.3,0.1,0.5,0.1c-0.8,2.1,0.7,3.2,1.4,4.7c0.9,1.9,1.8,3.8,2.5,5.8C867.9,638.3,867.7,639.3,867.7,640.5z"/>
		<path fill="#1a1a1a" d="M646.2,635.6c-1.6,0.8-3.1,1.6-5.1,2.6c0.2-1.8,1-2.4,2.1-2.8c1.1-0.4,2.2-0.8,3.3-1.2c1.3-0.5,2.5-0.1,3.6,0.6
			c1.3,0.9,2.6,1.5,4.3,0.1c-0.7,1.7-0.7,1.7-2.7,2.6c-1-0.5-1.8-1.1-2.6-1.4C648.3,635.9,647.3,635.8,646.2,635.6z"/>
		<path fill="#1a1a1a" d="M1124.9,639.7c0.1-0.8-0.1-1.9,0.3-2.4c2.1-2.7,0.1-5.8,1.1-8.6c0.1-0.3-0.3-0.7-0.7-1.4c1-0.3,1.9-0.6,2.8-0.9
			c0.2,0.1,0.3,0.3,0.5,0.4c-1.8,0.8-1.6,2.1-1.4,3.4c0.5,2.5,0,4.9-0.7,7.3c-0.3,0.8-0.8,1.6-1.3,2.3
			C1125.4,639.9,1125.2,639.8,1124.9,639.7z"/>
		<path fill="#1a1a1a" d="M1349,641.9c-1,1.7-1.1,3.6-3,4.6c-0.3-1.1-0.3-2.1,0.6-2.9c0.1-0.1,0.3-0.2,0.3-0.4c1.4-2.6,3.5-3.7,6.4-3.5
			c0.8,0,1.6-0.8,2.9-1.5c-0.5,1.3-0.9,2.3-1.5,3.6C1352.7,639.8,1351.1,643,1349,641.9z"/>
		<path fill="#1a1a1a" d="M1261,645.4c-0.1-1.8-0.2-3.6,1.1-5c0.2-0.2,0.4-0.4,0.3-0.7c0-2.5-0.1-4.9-0.2-7.8c0.6-0.2,1.5-0.5,2.4-0.9
			c-1.3,1.8-1.5,1.8-1.1,4.2c0.4,2.5,0,4.9-0.8,7.2C1262.5,643.5,1261.6,644.4,1261,645.4C1261,645.4,1261,645.4,1261,645.4z"/>
		<path fill="#1a1a1a" d="M614.6,631.5c0-0.3,0-0.7-0.1-1c-1-2.2-0.8-3.3,0.9-4.8c0.6-0.5,1.3-1,2-0.3c0.4,0.4,0.4,1.1,0.4,1.7c0,0.5-0.2,1-0.3,1.5
			c0.7,0.4,1.3,0.8,1.9,1.2c0,0.1-0.1,0.2-0.1,0.4c-0.6-0.2-1.3-0.4-2.1-0.6c-0.5,0.5-1.7,0.6-1.2,1.9l0,0
			C615.6,631.5,615.1,631.5,614.6,631.5L614.6,631.5z"/>
		<path fill="#1a1a1a" d="M402,638.5c-1.2,1.3-2.2,1.3-3.4,1.1c-1.4-0.2-2.6-0.1-3.9,0.7c-0.8,0.5-1.8,0.6-2.6,0.9c-0.9,0.3-1.8,0.8-3.1,1.3
			c-0.4-0.5-1-1.1-1.7-1.8c0.1-0.2,0.2-0.4,0.2-0.5c1.2,1.1,2.2,1,3.4,0.3c2.5-1.4,5.2-2.1,8-2.2C399.9,638.2,400.8,638.4,402,638.5
			z"/>
		<path fill="#1a1a1a" d="M788.3,634.5c-0.4-0.4-0.9-1-1.5-1.6c0.1-0.2,0.1-0.3,0.2-0.5c2.1,1.4,3.7,0,5.3-0.7c2.4-1.1,4.9-1.2,7.4-1.3
			c0.4,0,0.8,0.2,1.4,0.4c-0.8,1.2-1.9,1.3-2.9,1.1c-1.6-0.3-3-0.2-4.3,0.8c-0.6,0.4-1.4,0.5-2.1,0.8
			C790.8,633.7,789.8,634,788.3,634.5z"/>
		<path fill="#1a1a1a" d="M669.2,630.7c-1-3.2-1-3.5,1.4-4.2c-0.6,2.3,1,2.9,2.6,3.8c1.7,0.9,3,0.5,4.3-1.1c0.1,0.3,0.2,0.6,0.3,0.9
			c-0.6,0.7-1.2,1.4-1.9,2.2c-1.2-0.5-2.2-1-3.4-1.3C671.6,630.8,670.5,630.9,669.2,630.7z"/>
		<path fill="#1a1a1a" d="M349.4,640.2c-1.3-0.3-2.5-0.6-3.8-0.9c-0.8,0.8-1.4,1.7-2.3,2.2c-0.5,0.3-1.4-0.3-2.2-0.5c0.1-1.1,0.1-2,0.2-3.2
			c3,0.3,5.7,0.5,8.3,1.7C349.5,639.7,349.5,639.9,349.4,640.2z"/>
		<path fill="#1a1a1a" d="M754.2,637.1c-1.3-0.8-1.3-2.3-1.5-3.6l0,0.1c0.4-0.1,0.8-0.2,1.2-0.4c1.9-0.9,2.9-2.7,4.2-4.1c1,0.5,1.9,1.1,2.9,1.6
			c-0.5,0.9-1,1.1-2,1.2c-1.9,0.2-3.7,1-5.1,2.8c0.5,0.5,0.9,1,1.3,1.5C754.8,636.5,754.5,636.8,754.2,637.1z"/>
		<path fill="#1a1a1a" d="M519.2,643.2c-2,0.5-2.6-0.9-3.3-1.6c-1.7-1.7-3.4-3.3-5.5-4.5c-0.7-0.4-0.6-0.9,0.3-1.4
			C513.3,638.3,517.3,639.3,519.2,643.2z"/>
		<path fill="#1a1a1a" d="M952.5,636.5c0.3-0.8,0.3-1.3,0.5-1.5c2.8-1.7,5.7-3.4,8.5-5.1c0.1,0,0.3,0.3,0.7,0.6C959,632.5,956.8,635.6,952.5,636.5z
			"/>
		<path fill="#1a1a1a" d="M826.1,626.3c-3.2,1.5-5.3,4.9-9.1,5.6c-0.5-0.8-0.2-1.3,0.5-1.7c1.9-1.1,3.8-2.1,5.6-3.3c0.6-0.4,1.1-1,1.8-1.3
			c0.3-0.2,0.8,0,1.2,0.1C826,625.8,826.1,626,826.1,626.3z"/>
		<path fill="#1a1a1a" d="M609.6,627.5c-0.3-0.8-0.5-1.1-0.5-1.4c0-2.9-0.2-5.7-1.3-8.4c-0.3-0.7-0.2-1.2,0.6-1.3c0.3,0,0.8,0.6,0.9,0.9
			c0.5,2,0.9,3.9,1.2,5.9C610.7,624.6,610.9,626,609.6,627.5z"/>
		<path fill="#1a1a1a" d="M745.3,627.9c-0.6,0.1-1.2,0.3-1.8,0.1c-3-0.9-5.9-2.2-9.1-2.1c-0.2,0-0.4-0.7-0.9-1.5c4.3,1.2,8.4,0.5,11.8,2.8
			C745.3,627.5,745.3,627.7,745.3,627.9z"/>
		<path fill="#1a1a1a" d="M960,635.9c0.2-0.3,0.3-0.5,0.4-0.6c0.1-0.1,0.4-0.1,0.5-0.1c2.1,1.7,4.2,3.4,6.2,5.2c0.6,0.5,0.9,1.4,1.3,2.1
			c-0.9,0.8-1.4,0.5-1.9-0.1c-1.4-1.6-2.8-3.1-4.3-4.7C961.5,637.1,960.7,636.5,960,635.9z"/>
		<path fill="#1a1a1a" d="M560.4,643.6c0.5-0.2,1.1-0.6,1.2-0.4c2.4,2.2,4.7,4.4,6.9,6.6c0.2,0.2,0.2,0.6,0.4,0.9c-0.9,0.5-1.4,0.3-2-0.4
			c-0.9-1.1-1.9-2.2-2.9-3.2C563,645.9,561.8,644.8,560.4,643.6z"/>
		<path fill="#1a1a1a" d="M2.7,638.7c0.9-0.6,1.5-0.7,1.7,0.5c0.4,1.9,0.8,3.8,1.1,5.7c0.2,1.4,0.5,2.8-0.8,4.3C3.2,645.6,4.7,641.8,2.7,638.7z"/>
		<path fill="#1a1a1a" d="M695.6,633.8c0.2-0.4,0.4-0.9,0.6-1.3c0.5-0.7,1.1-1.4,1.5-2.2c0.6-1.1,1.5-1.6,2.5-1.1c0.8,0.4,1.4,1,1.2,2
			c-0.2,1.1-1.3,1.8-2.5,1.7C697,632.7,697,632.7,695.6,633.8z"/>
		<path fill="#1a1a1a" d="M1189.9,644.6c-3.7-0.1-6.9-2.2-10.5-2.8c-0.1,0-0.1-0.4-0.1-1C1183,642.2,1187,641.7,1189.9,644.6z"/>
		<path fill="#1a1a1a" d="M832.4,637.3c0.4-0.7,0.9-1.5,1.3-2.2c0.6-1.2,1.4-1.6,2.4-1.3c1,0.3,1.5,1.3,1.3,2.2c-0.3,1-1.3,1.6-2.6,1.5
			C834,637.3,833.1,637.3,832.4,637.3z"/>
		<path fill="#1a1a1a" d="M546.5,642.4c0.6,0.5,1.2,1.1,2,1.7c0.9,0.6,1.3,1.3,0.9,2.4c-0.4,0.9-1.7,1.3-2.6,0.9c-1-0.4-1.5-1.5-1.2-2.5
			C545.9,643.9,546.3,643.1,546.5,642.4z"/>
		<path fill="#1a1a1a" d="M684,621.9c0.6,0.6,1.3,1.2,2,1.9c0.8,0.7,1,1.6,0.4,2.5c-0.6,0.9-1.6,0.9-2.5,0.4c-0.9-0.5-1.3-1.3-0.9-2.4
			C683.3,623.4,683.7,622.6,684,621.9z"/>
		<path fill="#1a1a1a" d="M751.1,623.8c1.8-1.3,2.9-1.1,3.6,0.9c0.5,1.4,1.3,2.5,2.4,3.4c-0.6,1.1-1.6,0.7-2.5,0.7l0.1,0c0.3-1.3-0.3-2-1.6-2.1
			l0,0.1C753.4,625.3,752.8,624.1,751.1,623.8L751.1,623.8z"/>
		<path fill="#1a1a1a" d="M457.3,636.4c1.1,0.3,2.2,0.7,3.2,1c0.9,0.3,1.6,0.7,1.5,1.7c-0.1,1-0.6,1.5-1.6,1.6c-1.2,0.1-2.2-0.6-2.1-1.6
			C458.4,637.8,458.4,636.9,457.3,636.4z"/>
		<path fill="#1a1a1a" d="M1130.8,634.5c0.4,0.5,1.1,1.2,1.7,1.9c0.7,0.8,0.8,1.8,0.1,2.5c-0.7,0.7-1.5,0.7-2.3,0.2c-0.9-0.6-1.1-1.5-0.7-2.4
			C1130,635.9,1130.5,635.1,1130.8,634.5z"/>
		<path fill="#1a1a1a" d="M334.2,636.6c0.7,0.2,1.4,0.5,2.2,0.7c1,0.2,1.8,0.7,1.6,1.8c-0.1,1-0.8,1.5-1.8,1.5c-1,0.1-2-0.7-2.1-1.8
			C334.2,638,334.2,637.2,334.2,636.6z"/>
		<path fill="#1a1a1a" d="M794.4,627.8c0.2-0.5,0.6-1.3,0.9-2c0.4-1,1.2-1.5,2.2-1.2c0.9,0.2,1.5,0.9,1.3,1.9c-0.2,1.1-1.1,1.8-2.2,1.6
			C795.8,628.1,795,627.9,794.4,627.8z"/>
		<path fill="#1a1a1a" d="M733.6,628.5c0.5,0.2,1.3,0.5,2.1,0.7c1,0.2,1.7,0.7,1.8,1.8c0,1-0.8,1.7-1.8,1.7c-1.1,0-2-0.7-2.1-1.8
			C733.5,630,733.6,629.2,733.6,628.5z"/>
		<path fill="#1a1a1a" d="M930.2,632.7c0.4-0.7,0.9-1.5,1.3-2.2c0.5-0.9,1.1-1.6,2.2-1.1c0.8,0.3,1.6,0.8,1.3,1.9c-0.2,0.9-1.3,1.7-2.3,1.6
			c-0.5-0.1-0.9-0.4-1.4-0.4C930.9,632.4,930.5,632.6,930.2,632.7z"/>
		<path fill="#1a1a1a" d="M991.4,639.2c0.7-0.2,1.4-0.4,2.1-0.5c0.5-0.1,1.1,0,1.6,0c-0.1,0.6,0.1,1.3-0.2,1.8c-1.3,2.1-2,2.2-4.6,0.9c0,0,0,0,0,0
			C991.3,641,991.7,640.2,991.4,639.2L991.4,639.2z"/>
		<path fill="#1a1a1a" d="M753.6,621.6c-0.6-2.3-0.9-4.6-1.9-6.6c-0.9-2-3.2-2.6-5-3.8c2.2,0.5,4.7,1.3,5.6,3.3
			C753.2,616.5,755.2,618.7,753.6,621.6z"/>
		<path fill="#1a1a1a" d="M1267,639.8c0.5,0.4,1.1,0.8,1.5,1.3c0.8,0.8,0.8,1.8,0.2,2.5c-0.7,0.7-1.5,0.8-2.3,0.2c-0.8-0.6-1.3-1.4-0.7-2.4
			C1266.1,640.7,1266.5,640.3,1267,639.8z"/>
		<path fill="#1a1a1a" d="M397.3,636.1c-0.8-0.1-1.5-0.5-1.4-1.6c0.1-1.2,0.7-2,1.9-1.9c1.1,0,1.8,0.8,1.8,1.7C399.4,635.3,398.5,636.1,397.3,636.1
			z"/>
		<path fill="#1a1a1a" d="M1004.8,637.2c2.2-0.8,4.3-0.9,6.2,0.7c1.1,0.8,2.3,1.5,3.3,2.3c0.6,0.5,0.8,1.3,1.2,2c-0.1,0.1-0.3,0.2-0.4,0.3
			c-0.4-0.4-0.9-0.6-1.2-1.1c-2-2.9-4.5-4.6-8.1-4.2C1005.5,637.3,1005.1,637.2,1004.8,637.2L1004.8,637.2z"/>
		<path fill="#1a1a1a" d="M253.5,642.5C253.5,642.5,253.5,642.4,253.5,642.5c-1.1-2.6-0.5-3.9,2.2-4.1c0.1,1,0.2,2,0.2,2.9
			C255.1,641.6,254.3,642,253.5,642.5z"/>
		<path fill="#1a1a1a" d="M995.5,644.4c2.9-1.7,6.2-0.7,9.2-1.5c0,0.2,0.1,0.4,0.1,0.7c-3,0.5-6.1,1.1-9.1,1.6C995.6,644.9,995.5,644.6,995.5,644.4
			z"/>
		<path fill="#1a1a1a" d="M1330.5,634.1c1.6,0.6,3.3,1.4,3.7,3.1c0.5,2.2,2.3,4.3,0.3,7.1c-0.1-1-0.3-1.7-0.3-2.3c0.2-3-0.4-5.5-3.2-7.2
			C1330.8,634.7,1330.7,634.3,1330.5,634.1L1330.5,634.1z"/>
		<path fill="#1a1a1a" d="M249.9,639.4c-1.1-2.4-0.5-5.1-1.2-7.5C249.6,634.3,251.1,636.6,249.9,639.4z"/>
		<path fill="#1a1a1a" d="M354.1,636.9c-0.7,0.8-1.7,1.4-2.6,0.6c-0.8-0.7-1.7-1.7-0.9-3.2C352.2,634.9,353.5,635.4,354.1,636.9L354.1,636.9z"/>
		<path fill="#1a1a1a" d="M1208.2,641.7c-2,2.6-3.1,3.1-5.9,2.7C1204.4,643.4,1206.3,642.6,1208.2,641.7L1208.2,641.7z"/>
		<path fill="#1a1a1a" d="M1208.2,641.7c1.5-1.7,1.7-2.1,2.9-6.1C1211.6,638.5,1210.4,640.9,1208.2,641.7C1208.2,641.7,1208.2,641.7,1208.2,641.7z"
			/>
		<path fill="#1a1a1a" d="M1072.2,637.1c1.8-1.6,2.1-4.1,2.9-6.7C1075.5,633.9,1074.4,636.2,1072.2,637.1C1072.2,637.1,1072.2,637.1,1072.2,637.1z"
			/>
		<path fill="#1a1a1a" d="M354.2,637c1.3-0.4,2.2-0.2,2.8,1.2c0.3,0.7,0.7,1.3,1.1,2.1c-0.5,0.2-0.9,0.3-1.2,0.4l0,0c-0.4-0.5-0.7-1.1-1.1-1.6
			l0.1,0.1C355.8,638.1,355.4,637.2,354.2,637C354.1,636.9,354.2,637,354.2,637z"/>
		<path fill="#1a1a1a" d="M352.3,639.6c-0.1-0.2-0.3-0.3-0.4-0.5c1.3-0.8,2.7-1,4,0c0,0-0.1-0.1-0.1-0.1c-0.5,0.5-1,1-1.6,1.6l0.1,0
			C353.8,640,353.5,638.9,352.3,639.6L352.3,639.6z"/>
		<path fill="#1a1a1a" d="M989.9,634.1c-0.3,1.6-0.7,3.2-1,4.7C987.8,636.8,989,635.5,989.9,634.1C989.9,634.1,989.9,634.1,989.9,634.1z"/>
		<path fill="#1a1a1a" d="M261.2,640.7c-1.3,1-2.1,2.8-4.7,2.7C258.4,642.3,259.9,641.5,261.2,640.7L261.2,640.7z"/>
		<path fill="#1a1a1a" d="M939,636.2c0.3,0.3,0.6,0.7,0.9,1c-0.7,0.2-1.4,0.3-2.1,0.5c-0.1-0.2-0.2-0.4-0.3-0.6C938,636.8,938.5,636.5,939,636.2z"
			/>
		<path fill="#1a1a1a" d="M754.2,637.1c0.3-0.3,0.6-0.6,0.9-0.9c0.5,0.2,1.1,0.4,1.9,0.8C755.8,637.7,755,637.6,754.2,637.1z"/>
		<path fill="#1a1a1a" d="M261.3,640.8c0.4-1.4,0.9-2.8,1.5-4.6C262.5,638,262.8,639.7,261.3,640.8C261.2,640.7,261.3,640.8,261.3,640.8z"/>
		<path fill="#1a1a1a" d="M356.1,632.6c0.1,0.7,0.2,1.3,0.2,2c-0.2,0-0.3,0.1-0.5,0.1c-0.1-0.7-0.3-1.3-0.4-2C355.7,632.7,355.9,632.6,356.1,632.6z
			"/>
		<path fill="#1a1a1a" d="M989.9,634.1c0.1-1.9,1.8-2,3-2.7l0,0C991.9,632.3,990.9,633.2,989.9,634.1C989.9,634.1,989.9,634.1,989.9,634.1z"/>
		<path fill="#1a1a1a" d="M1330.5,634c-0.6-0.1-1.2-0.2-2.2-0.4C1329.5,633.2,1329.5,633.2,1330.5,634C1330.5,634.1,1330.5,634,1330.5,634z"/>
		<path fill="#1a1a1a" d="M992.9,631.4c0.7-0.3,1.4-0.6,2.1-1C994.5,631.6,993.6,631.2,992.9,631.4C992.9,631.4,992.9,631.4,992.9,631.4z"/>
		<path fill="#1a1a1a" d="M673.2,627.8c0.3-0.1,0.7-0.2,1-0.3c-0.1,0.1-0.3,0.2-0.4,0.3c-0.2,0.1-0.4,0.1-0.5,0.2
			C673.2,627.8,673.2,627.8,673.2,627.8z"/>
		<path fill="#1a1a1a" d="M979.7,631.5c-0.5-0.3-1-0.5-1.5-0.9C979.3,630.1,979.3,630.1,979.7,631.5C979.7,631.5,979.7,631.5,979.7,631.5z"/>
		<path fill="#1a1a1a" d="M848.8,637.6c-0.3,0.7-0.6,1.4-2.1,0.5C847.7,637.9,848.3,637.7,848.8,637.6C848.8,637.6,848.8,637.6,848.8,637.6z"/>
		<path fill="#1a1a1a" d="M677.5,628.6c-0.3-0.1-0.7-0.3-1-0.5c0,0,0.1-0.4,0.2-0.6c0.4,0.2,0.7,0.4,1.1,0.7C677.7,628.4,677.6,628.5,677.5,628.6z"
			/>
		<path fill="#1a1a1a" d="M755.5,634.7c0.3-0.1,0.7-0.2,1-0.3c0,0.1,0.1,0.3,0.1,0.4c-0.3,0.1-0.7,0.2-1,0.3C755.6,634.9,755.5,634.8,755.5,634.7z"
			/>
		<path fill="#1a1a1a" d="M143.7,633.5c-0.7-0.1-1.3-0.1-2-0.2C142.8,632.1,143.1,633.2,143.7,633.5C143.7,633.5,143.7,633.5,143.7,633.5z"/>
		<path fill="#1a1a1a" d="M1121.6,641c-0.2,0.1-0.4,0.1-0.6,0.1c-0.1,0-0.1-0.2-0.2-0.4c0.2-0.1,0.4-0.2,0.6-0.2
			C1121.4,640.6,1121.5,640.8,1121.6,641z"/>
		<path fill="#1a1a1a" d="M108.5,649.1c-0.2,0-0.3,0-0.5,0c-0.2,0-0.4,0-0.6,0c0.2,0,0.3,0,0.5,0C108.1,649.1,108.3,649.1,108.5,649.1z"/>
		<path fill="#1a1a1a" d="M707.2,631.9c-0.7-0.1-1.2-0.2-0.8-1.3C706.7,631.1,707,631.5,707.2,631.9C707.2,632,707.2,631.9,707.2,631.9z"/>
		<path fill="#1a1a1a" d="M1293.2,644.2c-0.5,0-1-0.1-1.8-0.1C1292.4,643,1292.7,644,1293.2,644.2C1293.2,644.2,1293.2,644.2,1293.2,644.2z"/>
		<path fill="#1a1a1a" d="M499.6,645.8c-0.6-0.1-1.5,0.3-1.9-0.8C498.7,644.6,499.1,645.5,499.6,645.8C499.6,645.8,499.6,645.8,499.6,645.8z"/>
		<path fill="#1a1a1a" d="M1353.3,648.1C1353.6,648.1,1353.4,648.1,1353.3,648.1C1353.4,648.1,1353.6,648.1,1353.3,648.1z"/>
		<path fill="#1a1a1a" d="M794.7,636.9c-0.6,0.3-1.1,0.5-1.3-0.6C793.9,636.5,794.3,636.8,794.7,636.9C794.7,637,794.7,636.9,794.7,636.9z"/>
		<path fill="#1a1a1a" d="M1004.8,637.1c-0.2,0.2-0.3,0.5-0.5,0.5c-0.3,0-0.5-0.2-0.8-0.3c0.2-0.2,0.4-0.4,0.6-0.4
			C1004.3,636.9,1004.6,637.1,1004.8,637.1C1004.8,637.2,1004.8,637.1,1004.8,637.1z"/>
		<path fill="#1a1a1a" d="M627.3,623.1c-0.2,0.1-0.4,0.2-0.6,0.3c0,0-0.2-0.3-0.2-0.4c0.1-0.2,0.3-0.3,0.5-0.4C627.1,622.7,627.2,622.9,627.3,623.1
			z"/>
		<path fill="#1a1a1a" d="M991.5,639.1c-0.3-0.2-0.7-0.4-1-0.6c0.1-0.1,0.2-0.2,0.3-0.3C991,638.5,991.2,638.8,991.5,639.1
			C991.4,639.2,991.5,639.1,991.5,639.1z"/>
		<path fill="#1a1a1a" d="M562.5,647.8c-0.3-0.2-0.6-0.4-0.9-0.7c0.1-0.1,0.2-0.2,0.3-0.3C562.1,647.2,562.3,647.5,562.5,647.8
			C562.4,647.9,562.5,647.8,562.5,647.8z"/>
	</g>
</g>
</svg>
